<svg width="198" height="151" viewBox="0 0 198 151" fill="none" xmlns="http://www.w3.org/2000/svg">
<g clip-path="url(#clip0_1_343)">
<path d="M120.061 45.5026C120.307 45.5139 120.551 45.4491 120.759 45.317C120.968 45.1848 121.13 44.9917 121.225 44.7638C121.321 44.5359 121.343 44.2843 121.291 44.0429C121.239 43.8015 121.113 43.5821 120.932 43.4144C120.902 43.2937 120.88 43.207 120.85 43.0863C120.861 43.06 120.872 43.0337 120.883 43.0075C121.99 40.3627 125.743 40.381 126.84 43.0296C127.815 45.3805 129.055 47.7353 129.361 50.2209C129.495 51.3196 129.439 52.4333 129.193 53.5126C131.482 48.5118 132.67 43.0765 132.678 37.5752C132.678 36.1947 132.602 34.8153 132.449 33.4434C132.322 32.3187 132.146 31.202 131.921 30.0934C130.695 24.0779 128.061 18.4396 124.237 13.6417C122.385 12.63 120.889 11.0743 119.947 9.18413C119.606 8.50469 119.365 7.77939 119.232 7.03079C119.441 7.05822 120.019 3.87277 119.862 3.67733C120.153 3.23502 120.674 3.01515 120.991 2.58354C122.572 0.436981 124.75 0.811783 125.886 3.72878C128.315 4.95653 128.338 6.99265 126.848 8.95094C125.9 10.1968 125.77 11.8826 124.938 13.2164C125.024 13.3262 125.113 13.4325 125.198 13.5422C126.763 15.5572 128.126 17.7209 129.269 20.0023C128.946 17.472 129.423 14.4237 130.237 12.4587C131.164 10.2198 132.9 8.33422 134.43 6.39871C136.267 4.07386 140.033 5.08847 140.357 8.03558C140.36 8.06412 140.363 8.09264 140.366 8.12115C140.139 8.24951 139.917 8.38576 139.699 8.52989C139.426 8.71281 139.214 8.97415 139.091 9.27968C138.969 9.58522 138.942 9.92069 139.013 10.2421C139.084 10.5636 139.25 10.856 139.49 11.0812C139.73 11.3063 140.032 11.4536 140.357 11.5037L140.39 11.5089C140.309 12.3289 140.166 13.1416 139.962 13.94C141.924 21.5399 137.688 24.308 131.641 24.4323C131.507 24.5009 131.377 24.5695 131.244 24.6346C132.392 27.8945 133.112 31.2901 133.386 34.7361C133.542 36.7691 133.532 38.8114 133.359 40.8429L133.369 40.7709C133.808 38.5119 135.011 36.4735 136.775 35.0001C139.396 32.8433 143.1 32.0491 145.927 30.3155C147.288 29.481 149.033 30.5594 148.795 32.1402C148.791 32.1654 148.787 32.1906 148.783 32.2159C148.362 32.3878 147.952 32.5859 147.555 32.809C147.327 32.9374 147.105 33.0737 146.888 33.2178C146.614 33.4007 146.402 33.662 146.28 33.9676C146.158 34.2731 146.13 34.6086 146.201 34.93C146.272 35.2515 146.439 35.5439 146.678 35.7691C146.918 35.9942 147.22 36.1415 147.545 36.1916L147.579 36.1968C147.603 36.2002 147.623 36.2036 147.647 36.2071C146.927 37.9297 145.916 39.5153 144.659 40.8943C143.432 47.5288 138.163 48.1583 132.527 46.2262H132.524C131.905 48.9179 131.009 51.5379 129.85 54.0441H120.3C120.266 53.9378 120.235 53.828 120.204 53.7217C121.088 53.7774 121.976 53.7244 122.847 53.564C122.138 52.6931 121.43 51.8153 120.721 50.9444C120.705 50.9281 120.69 50.9109 120.676 50.8929C120.317 50.4472 119.954 50.0048 119.595 49.5591L119.595 49.5586C119.575 48.1922 119.732 46.8291 120.06 45.5027L120.061 45.5026Z" fill="#F2F2F2"/>
<path d="M150.724 21.0197C148.948 14.5344 163.271 8.97311 167.032 14.1957C167.555 13.4532 169.488 13.0022 170.375 13.23C171.261 13.4578 172.007 14.0272 172.735 14.5784C173.735 15.3482 174.772 16.1454 175.386 17.2524C176.005 18.3548 176.1 19.8581 175.268 20.8147C174.608 21.5754 172.662 22.0674 171.671 22.2678C170.979 22.4091 170.397 22.5229 169.897 22.6049C169.443 21.9492 169.233 21.1541 169.306 20.3591C168.969 20.5867 168.687 20.886 168.479 21.2357C168.272 21.5854 168.144 21.9768 168.105 22.3817C168.092 22.5503 173.694 43.1997 173.694 43.1997C173.021 43.5835 172.313 43.9023 171.58 44.1518C170.129 41.9306 169.017 39.5046 168.283 36.9543C168.114 38.6596 168.135 40.3785 168.346 42.0791C168.459 43.0327 168.62 43.9799 168.828 44.9171C162.171 46.3566 152.157 45.8828 147.8 39.7604C147.799 39.7351 147.798 39.7098 147.798 39.6844C147.794 39.4427 147.707 39.2098 147.551 39.0254C147.395 38.8411 147.18 38.7168 146.942 38.6738C146.705 38.6309 146.46 38.672 146.25 38.7901C146.039 38.9081 145.876 39.0959 145.788 39.3211C145.683 39.5912 145.586 39.825 145.499 40.011C144.23 35.4647 145.872 30.2033 150.724 21.0197Z" fill="#2F2E41"/>
<path d="M139.394 129.748V129.96C139.386 129.89 139.386 129.818 139.394 129.748Z" fill="#2F2E41"/>
<path d="M145.915 93.0454C146.084 92.9995 146.256 92.966 146.43 92.9451C146.23 92.9777 146.059 93.0112 145.915 93.0454Z" fill="#2F2E41"/>
<path d="M145.764 93.0839C145.809 93.0711 145.86 93.0582 145.915 93.0454C145.864 93.0586 145.816 93.0683 145.764 93.0839Z" fill="#2F2E41"/>
<path d="M193.934 150.999H169.53C169.182 150.721 168.94 150.331 168.844 149.895C168.749 149.459 168.807 149.004 169.007 148.605C169.674 147.074 168.367 145.674 168.367 145.674C167.924 145.154 167.616 144.532 167.47 143.863C167.324 143.195 167.345 142.5 167.531 141.842C168.178 139.58 165.644 133.195 165.644 133.195C165.644 133.195 164.278 141.439 162.604 150.999H139.395C139.006 150.336 138.801 149.58 138.801 148.811C138.801 148.042 139.006 147.287 139.395 146.623C140.747 144.326 139.395 143.885 139.395 143.885C139.395 143.885 138.042 141.315 139.395 139.448C140.747 137.582 139.395 129.96 139.395 129.96C139.446 130.297 139.831 129.684 140.424 128.4C141.327 126.446 142.708 122.931 144.102 118.851C145.099 115.938 146.104 112.734 146.944 109.601H146.946C147.166 108.778 147.375 107.963 147.572 107.155C147.957 105.57 148.288 104.03 148.538 102.584C149.083 99.4699 149.262 96.7946 148.844 95.0546C148.498 93.6067 147.739 92.8082 146.43 92.945C147.132 92.8286 148.159 92.7183 149.425 92.6142C149.654 92.5958 149.89 92.5774 150.135 92.557C159.578 91.8422 179.84 91.4318 179.84 91.4318L186.046 102.564L193.905 116.665C193.905 116.665 193.691 135.582 193.934 150.999Z" fill="#13B351"/>
<path d="M167.886 43.3168L153.588 40.2787L150.749 46.0027L141.189 51.547C141.189 51.547 147.351 76.7864 147.316 80.3362C147.227 89.3485 132.831 109.552 143.704 107.997C154.578 106.443 156.787 99.933 160.278 100.962C163.426 101.891 167.27 106.021 169.843 103.067C172.417 100.113 173.323 103.524 174.951 103.642C175.724 103.698 175.258 99.9121 177.204 103.76C179.15 107.607 189.468 102.428 185.971 98.9249C180.147 93.0909 178.963 50.0842 178.963 50.0842L172.479 48.0859L167.886 43.3168Z" fill="#E6E6E6"/>
<path d="M140.918 134.976C141.492 134.289 141.777 133.406 141.711 132.513C141.645 131.619 141.234 130.787 140.565 130.193C140.427 130.075 140.279 129.968 140.124 129.874L142.514 118.121L136.988 114.808L135.45 131.262C135.11 131.938 135.003 132.708 135.146 133.452C135.289 134.195 135.673 134.871 136.239 135.372C136.564 135.655 136.941 135.87 137.349 136.007C137.758 136.143 138.188 136.197 138.617 136.167C139.047 136.137 139.465 136.022 139.85 135.829C140.235 135.637 140.578 135.37 140.86 135.044C140.88 135.022 140.899 134.999 140.918 134.976Z" fill="#A0616A"/>
<path d="M158.078 73.0273C158.043 72.6495 157.562 72.4779 156.895 72.241C156.226 72.0344 155.589 71.7325 155.005 71.3445C153.529 70.2764 154.11 69.1593 154.913 67.6154C155.07 67.3152 155.234 67.0028 155.386 66.678C155.841 65.7162 155.117 61.7481 153.232 54.8822C152.65 52.7685 152.653 51.2757 152.251 50.2852C151.851 49.2947 151.05 48.8066 148.866 48.7045C146.227 48.571 143.643 49.4912 141.68 51.2634C141.627 51.3104 141.572 51.3614 141.519 51.4104C141.419 51.5044 141.321 51.6004 141.225 51.6984C139.41 53.5278 138.371 55.9894 138.326 58.5684L138.316 59.0075L137.865 79.9851L136.599 98.3936L134.854 123.752L136.147 123.815L141.305 124.072L141.931 124.103L143.415 117.866L145.201 110.361L145.857 107.604L147.894 99.0512L148.844 95.0546L149.425 92.6142L149.662 91.6176L150.816 86.7734C150.842 86.6713 153.497 76.1805 156.557 74.4262C157.698 73.7727 158.11 73.3928 158.078 73.0273Z" fill="#E6E6E6"/>
<path d="M192.413 134.851C191.768 134.23 191.391 133.382 191.361 132.487C191.331 131.592 191.65 130.721 192.252 130.058C192.376 129.925 192.511 129.803 192.656 129.693L189.019 118.265L194.158 114.377L197.451 130.57C197.862 131.206 198.051 131.96 197.988 132.715C197.926 133.469 197.616 134.182 197.107 134.742C196.815 135.057 196.463 135.312 196.072 135.492C195.68 135.671 195.258 135.772 194.828 135.788C194.398 135.804 193.97 135.734 193.566 135.584C193.163 135.434 192.793 135.206 192.478 134.913C192.456 134.892 192.435 134.872 192.413 134.851Z" fill="#A0616A"/>
<path d="M194.927 110.055C194.927 110.055 190.919 95.928 192.141 94.3986C193.364 92.8693 189.753 92.5707 191.309 89.7225C192.865 86.8744 190.718 86.398 190.718 86.398L189.552 79.8495L187.469 63.7647L187.406 63.2864L186.8 58.6068C186.631 57.2702 186.194 55.9815 185.516 54.8178C184.839 53.6541 183.933 52.6392 182.855 51.8339C182.8 51.7916 182.744 51.7511 182.688 51.7105C182.431 51.5256 182.169 51.3542 181.901 51.1964C179.902 50.0147 177.554 49.568 175.261 49.9329C170.94 50.6069 172.285 52.2208 171.584 56.5444C170.445 63.5745 170.15 67.5964 170.705 68.5052C170.892 68.8112 171.089 69.1039 171.276 69.385C172.241 70.8356 172.938 71.882 171.584 73.1051C171.045 73.552 170.445 73.9199 169.802 74.1976C169.165 74.5062 168.705 74.7277 168.711 75.1071C168.718 75.4746 169.168 75.8065 170.372 76.3328C171.832 76.9726 173.399 79.3914 174.683 81.8624C175.702 83.8541 176.61 85.9004 177.405 87.9921L188.44 119.081L190.24 124.151L190.861 124.052L195.96 123.243L197.238 123.04L194.927 110.055Z" fill="#E6E6E6"/>
<path d="M161.854 40.064C168.296 40.064 173.519 34.8325 173.519 28.3792C173.519 21.926 168.296 16.6945 161.854 16.6945C155.411 16.6945 150.188 21.926 150.188 28.3792C150.188 34.8325 155.411 40.064 161.854 40.064Z" fill="#A0616A"/>
<path d="M144.357 21.9308C142.581 15.4454 156.904 9.88418 160.665 15.1068C161.188 14.3643 163.121 13.9133 164.008 14.1411C164.895 14.3688 165.64 14.9383 166.368 15.4895C167.369 16.2593 168.405 17.0565 169.019 18.1635C169.638 19.2659 169.733 20.7691 168.901 21.7258C168.242 22.4865 166.295 22.9785 165.304 23.1789C164.613 23.3201 164.031 23.434 163.53 23.516C163.076 22.8603 162.867 22.0651 162.939 21.2702C162.602 21.4977 162.32 21.7971 162.113 22.1468C161.905 22.4964 161.777 22.8878 161.739 23.2928C161.725 23.4613 167.328 44.1108 167.328 44.1108C166.654 44.4946 165.946 44.8134 165.213 45.0629C163.762 42.8417 162.651 40.4157 161.916 37.8654C161.747 39.5707 161.768 41.2896 161.98 42.9902C162.092 43.9438 162.253 44.891 162.462 45.8282C155.804 47.2677 145.79 46.7939 141.433 40.6715C141.432 40.6462 141.432 40.6208 141.431 40.5955C141.428 40.3538 141.34 40.1208 141.184 39.9365C141.028 39.7521 140.813 39.6278 140.576 39.5849C140.338 39.542 140.093 39.5831 139.883 39.7011C139.672 39.8192 139.509 40.007 139.422 40.2322C139.316 40.5023 139.219 40.7361 139.132 40.9221C137.863 36.3758 139.505 31.1143 144.357 21.9308Z" fill="#2F2E41"/>
<path d="M86.5058 62.3065C86.2595 62.3178 86.0156 62.253 85.8073 62.1209C85.5989 61.9888 85.4361 61.7957 85.341 61.5678C85.2459 61.3399 85.223 61.0882 85.2754 60.8468C85.3279 60.6054 85.4531 60.3861 85.6342 60.2184C85.6645 60.0976 85.6863 60.0109 85.7166 59.8902C85.7057 59.8639 85.6948 59.8376 85.6838 59.8114C84.5766 57.1667 80.8239 57.1849 79.7261 59.8336C78.7517 62.1844 77.5111 64.5392 77.2056 67.0248C77.0711 68.1235 77.1278 69.2373 77.3733 70.3165C75.0847 65.3157 73.8963 59.8804 73.8886 54.3792C73.8881 52.9987 73.9647 51.6193 74.118 50.2474C74.2446 49.1227 74.4203 48.006 74.6451 46.8973C75.8718 40.8818 78.5055 35.2436 82.33 30.4456C84.181 29.4339 85.6779 27.8782 86.6191 25.9881C86.96 25.3086 87.201 24.5833 87.3345 23.8347C87.1257 23.8622 86.5472 20.6767 86.7047 20.4813C86.4137 20.039 85.8929 19.8191 85.5751 19.3875C83.9945 17.2409 81.8168 17.6157 80.68 20.5327C78.2515 21.7605 78.228 23.7966 79.7181 25.7549C80.6662 27.0008 80.7964 28.6866 81.6282 30.0204C81.5426 30.1301 81.4536 30.2364 81.3681 30.3462C79.8037 32.3611 78.4402 34.5248 77.2972 36.8062C77.6206 34.2759 77.1432 31.2276 76.3293 29.2627C75.4028 27.0238 73.6662 25.1382 72.1369 23.2027C70.2999 20.8778 66.5332 21.8924 66.2095 24.8395C66.2064 24.8681 66.2033 24.8966 66.2004 24.9251C66.4275 25.0535 66.6499 25.1897 66.8674 25.3339C67.1407 25.5168 67.3525 25.7781 67.475 26.0836C67.5975 26.3892 67.625 26.7246 67.5539 27.0461C67.4828 27.3676 67.3164 27.66 67.0765 27.8851C66.8367 28.1102 66.5345 28.2575 66.2097 28.3077L66.1764 28.3128C66.2573 29.1329 66.4004 29.9456 66.6043 30.7439C64.6424 38.3439 68.878 41.1119 74.9258 41.2363C75.0593 41.3048 75.1894 41.3734 75.3229 41.4386C74.1745 44.6985 73.4542 48.0941 73.18 51.54C73.0248 53.573 73.034 55.6153 73.2074 57.6468L73.1972 57.5748C72.759 55.3158 71.5559 53.2775 69.7912 51.8041C67.1701 49.6473 63.467 48.8531 60.6393 47.1194C59.2781 46.2849 57.5338 47.3634 57.7714 48.9441C57.7752 48.9693 57.7791 48.9946 57.783 49.0198C58.2045 49.1918 58.6149 49.3899 59.0119 49.613C59.239 49.7414 59.4614 49.8776 59.6789 50.0217C59.9522 50.2046 60.164 50.466 60.2865 50.7715C60.409 51.0771 60.4365 51.4125 60.3654 51.734C60.2943 52.0555 60.1279 52.3479 59.888 52.573C59.6482 52.7981 59.346 52.9454 59.0212 52.9956L58.9879 53.0007C58.9639 53.0042 58.9434 53.0076 58.9194 53.011C59.6397 54.7336 60.6506 56.3192 61.9078 57.6983C63.1345 64.3327 68.4033 64.9622 74.0392 63.0302H74.0427C74.661 65.7219 75.557 68.3419 76.7161 70.848H86.2665C86.3008 70.7417 86.3316 70.632 86.3624 70.5257C85.4784 70.5813 84.5909 70.5284 83.7197 70.368C84.4283 69.497 85.1369 68.6192 85.8455 67.7483C85.8613 67.732 85.8761 67.7149 85.89 67.6969C86.2494 67.2511 86.6123 66.8088 86.9717 66.3631L86.9719 66.3625C86.991 64.9962 86.8345 63.633 86.5061 62.3067L86.5058 62.3065Z" fill="#F2F2F2"/>
<path d="M41.9428 14.1959C41.7261 14.7019 35.0425 14.6477 34.7364 15.0982C32.3764 18.5767 40.884 33.3766 38.5239 36.8596L38.1951 37.2521C38.9651 36.8966 39.7047 36.4787 40.4066 36.0023C40.4697 34.5767 40.5327 33.1465 40.6003 31.7209C41.3072 32.6267 41.8777 33.6314 42.2938 34.703C42.8433 34.315 43.294 33.5958 45.6492 32.181C46.6027 31.1318 47.702 30.2255 48.9131 29.4898L41.9428 14.1959Z" fill="#2F2E41"/>
<path d="M46.7964 42.7038C46.0588 42.2225 45.2173 41.9244 44.3417 41.8341C43.4661 41.7438 42.5817 41.864 41.7617 42.1847C40.9418 42.5053 40.21 43.0173 39.6271 43.678C39.0442 44.3387 38.627 45.1291 38.4102 45.9836L28.2536 72.4921L10.7956 62.5641C10.719 61.4229 10.2835 60.3354 9.55166 59.4574C8.81982 58.5795 7.82921 57.9563 6.72192 57.6772C5.61462 57.3981 4.44752 57.4774 3.38801 57.9038C2.32851 58.3302 1.43102 59.0817 0.824283 60.0506C0.217542 61.0195 -0.0672837 62.156 0.0106573 63.2971C0.0885982 64.4382 0.525303 65.5252 1.25813 66.4023C1.99097 67.2794 2.98227 67.9015 4.08988 68.1793C5.19749 68.4572 6.3645 68.3766 7.42353 67.949C11.1 71.8795 27.039 87.9946 33.6376 81.698C39.1841 76.4055 47.1883 55.8935 49.115 48.8103C49.4237 47.6776 49.3655 46.4761 48.9488 45.3787C48.5321 44.2813 47.7784 43.3447 46.7964 42.7038Z" fill="#FFB6B6"/>
<path d="M27.7251 82.8088L30.9302 97.3199L54.367 99.4434L56.5209 86.8082L27.7251 82.8088Z" fill="#FFB6B6"/>
<path d="M63.5252 120.021C63.5145 120.229 63.5016 120.434 63.4866 120.643C63.2618 123.649 63.0049 127.117 62.7266 130.917C62.2877 136.948 61.7974 143.815 61.3028 150.999H12.144L21.6779 122.295C21.6779 122.295 25.5274 120.172 23.5676 116.605C21.6077 113.039 25.464 115.881 25.4999 110.787C25.5357 105.694 28.9913 100.275 28.9913 100.275L29.5587 92.5635L29.882 92.5699L55.4644 92.9967L55.9312 93.0053L56.7169 99.6256C61.4877 105.312 63.9215 112.603 63.5252 120.021Z" fill="#13B351"/>
<path d="M42.3524 35.6712L54.018 35.0693L59.4364 43.6454C59.4364 43.6454 69.6312 45.3527 68.9245 57.3863C68.2178 69.4198 56.5205 79.9794 56.5205 79.9794L57.0205 78.2622L56.1521 80.7477L56.2635 82.1434L57.4482 83.6214L57.5701 85.15L56.5205 87.5685C56.657 87.7876 56.7294 88.0407 56.7296 88.299C56.7298 88.5573 56.6577 88.8105 56.5215 89.0298C56.3853 89.2491 56.1904 89.4259 55.959 89.5399C55.7277 89.6539 55.469 89.7007 55.2124 89.6749L38.3565 87.9829C37.9728 86.9254 37.6649 85.6602 36.1266 87.7664L34.5387 87.6123L27.938 86.9718L27.5495 85.5541C27.3287 84.7485 27.2943 83.9032 27.4489 83.0823C27.6035 82.2615 27.9429 81.4867 28.4415 80.8171C27.8681 79.0187 28.0183 77.0672 28.86 75.3781L28.8916 75.3147L29.5925 74.7295C29.5925 74.7295 21.9238 63.1888 30.7273 54.4965L34.2606 48.4797L38.2141 43.6481L42.3524 35.6712Z" fill="#7E0772"/>
<path d="M45.2561 30.6087C51.3655 30.6087 56.3183 25.6476 56.3183 19.5278C56.3183 13.408 51.3655 8.44696 45.2561 8.44696C39.1466 8.44696 34.1938 13.408 34.1938 19.5278C34.1938 25.6476 39.1466 30.6087 45.2561 30.6087Z" fill="#FFB6B6"/>
<path d="M53.6576 35.4906C52.7568 34.7367 52.1298 33.7058 51.874 32.5581C51.6694 33.9515 51.7229 35.3708 52.0317 36.7448C51.4326 37.196 50.8516 37.6246 50.3021 38.0126C49.8861 36.941 49.3155 35.9363 48.6086 35.0304C48.5411 36.4561 48.478 37.8863 48.415 39.3119C47.7131 39.7883 46.9735 40.2062 46.2035 40.5617L46.5323 40.1692C48.8924 36.6862 42.785 30.2752 45.1451 26.7968C45.8072 25.8223 42.8165 18.121 40.5375 17.7736C38.5107 17.4668 38.5963 18.0533 36.6325 18.4819C36.4286 17.63 36.112 16.8092 35.6912 16.0412C35.8032 16.8969 35.7774 17.7652 35.6146 18.6128C34.9165 18.6398 34.3673 18.1943 33.6239 18.0804C28.8812 17.354 29.3631 12.2154 30.6828 10.5867C32.0069 8.96249 36.4028 8.47523 38.4296 7.94735C38.6143 7.76691 39.0332 7.8797 39.2178 7.70825C43.1021 4.14747 48.297 3.55777 52.9719 5.13599C57.9574 6.81905 61.0658 10.0765 62.6611 15.0982L63.1186 19.1169C63.5291 20.4091 63.0127 26.4213 62.6611 27.7307C61.2941 32.8207 58.3829 30.2797 53.6576 35.4906Z" fill="#2F2E41"/>
<path d="M69.7875 87.989L69.352 54.0135C69.3293 52.5742 68.7425 51.2015 67.7183 50.1916C66.6941 49.1818 65.3146 48.6158 63.8775 48.6158C63.134 48.6158 62.3983 48.7675 61.7153 49.0615C61.0323 49.3556 60.4162 49.786 59.9046 50.3264C59.393 50.8667 58.9967 51.5058 58.7397 52.2046C58.4828 52.9034 58.3706 53.6474 58.41 54.391L59.9425 89.6693L59.9716 111.145C59.0684 111.529 58.3049 112.182 57.7851 113.015C57.2652 113.848 57.014 114.822 57.0657 115.803C57.1174 116.785 57.4695 117.726 58.0741 118.5C58.6786 119.274 59.5064 119.843 60.445 120.13C61.3835 120.416 62.3873 120.406 63.3199 120.101C64.2525 119.796 65.0688 119.211 65.6579 118.425C66.2469 117.639 66.5801 116.69 66.6123 115.708C66.6444 114.726 66.3739 113.757 65.8375 112.935L69.7875 87.989Z" fill="#FFB6B6"/>
<path d="M126.881 131.945C126.881 131.945 126.207 144.08 125.898 151H102.71C102.232 144.702 102.072 140.075 102.072 140.075L100.803 151H77.3642L75.9111 130.767L82.9333 113.331C82.9333 113.331 120.988 110.687 124.518 114.041C128.046 117.392 126.881 131.945 126.881 131.945Z" fill="#2F2E41"/>
<path d="M106.376 29.8698C113.371 29.8698 119.042 24.1895 119.042 17.1824C119.042 10.1753 113.371 4.49493 106.376 4.49493C99.3803 4.49493 93.7095 10.1753 93.7095 17.1824C93.7095 24.1895 99.3803 29.8698 106.376 29.8698Z" fill="#FFB6B6"/>
<path d="M121.139 13.0598C119.838 13.654 118.995 17.9576 117.973 16.9571C116.95 15.9566 117.018 14.6546 115.64 14.2854C114.526 13.9859 113.328 14.3282 112.313 14.8679C112.131 14.9631 111.956 15.0667 111.784 15.1697C111.671 15.094 111.559 15.0228 111.438 14.9571C110.53 14.4702 109.469 14.3507 108.476 14.6233C109.261 14.8867 109.943 15.3907 110.427 16.064C110.087 16.2922 109.743 16.5209 109.391 16.7236C106.449 18.424 102.263 14.7264 99.1668 13.3373C101.106 16.9831 100.151 18.493 98.4673 22.2635L98.4091 22.4782C98.5048 21.5332 95.5855 20.8289 95.7548 22.1592C95.875 23.1037 96.691 25.203 97.148 26.0369C93.8925 22.2663 91.6678 17.652 92.1372 12.8921C92.2394 11.8921 92.2086 10.8371 92.7235 9.96922C93.2389 9.10583 94.3135 8.49994 95.2641 8.82919C95.1836 7.31118 95.5152 5.79968 96.2237 4.45538C96.9322 3.11108 97.9912 1.98422 99.288 1.19462C100.585 0.405017 102.071 -0.0178234 103.589 -0.0289494C105.106 -0.0400755 106.598 0.360931 107.906 1.13144C109.122 1.84593 110.137 2.85644 111.251 3.7281C112.365 4.59974 113.65 5.35953 115.062 5.43149C115.958 5.47478 116.934 5.25561 117.704 5.72058C118.596 6.2601 118.748 7.3897 118.882 8.47665C118.087 8.55521 117.333 8.86957 116.716 9.37956C117.539 9.29546 118.368 9.47349 119.084 9.88834C119.098 9.8945 119.111 9.9019 119.123 9.91042C119.595 11.7068 119.546 12.105 121.139 13.0598Z" fill="#2F2E41"/>
<path d="M77.4204 119.469C88.2066 106.822 84.5634 90.7364 80.2824 74.4987L81.097 50.5108C81.1369 49.3341 81.459 48.1843 82.0359 47.1585C82.6128 46.1327 83.4277 45.261 84.4117 44.6171L95.4231 37.4113L99.7089 31.2042L111.523 32.3876L118.074 39.3274L125.325 44.8727C127.146 46.265 128.531 48.1498 129.318 50.3047C130.105 52.4597 130.26 54.7951 129.765 57.0355L122.826 88.4709C122.826 88.4709 125.728 104.767 123.958 106.567C122.187 108.367 117.623 106.568 121.242 108.588C125.585 111.013 129.533 110.566 127.336 112.767C125.138 114.968 127.919 118.029 127.919 118.029L77.4204 119.469Z" fill="#7E0772"/>
<path d="M82.0321 137.849L83.8302 125.016L76.6551 122.965L75.2359 136.6C74.6421 137.145 74.212 137.846 73.9938 138.623C73.7757 139.399 73.7782 140.222 74.0011 140.997C74.2239 141.773 74.6583 142.471 75.2554 143.012C75.8526 143.554 76.5887 143.918 77.3811 144.064C78.1735 144.21 78.9907 144.131 79.741 143.837C80.4912 143.543 81.1446 143.045 81.6279 142.399C82.1111 141.753 82.4049 140.985 82.4763 140.182C82.5477 139.378 82.3939 138.57 82.0321 137.849Z" fill="#FFB6B6"/>
<path d="M95.6922 39.7245C95.6922 39.7245 75.2688 46.3829 74.7818 51.2548C74.2948 56.1266 74.4563 59.109 72.3008 78.604L72.4143 131.118C72.4143 131.118 86.107 134.055 84.7027 130.915C83.2985 127.775 83.7885 126.298 83.7885 126.298C83.7885 126.298 86.7242 125.138 85.9893 121.451C85.2544 117.765 88.9397 99.4954 88.9397 99.4954L91.2658 66.7303L95.6922 39.7245Z" fill="#7E0772"/>
<path d="M120.874 137.169L119.917 124.246L127.211 122.669L127.738 136.368C128.294 136.951 128.678 137.678 128.845 138.468C129.012 139.257 128.956 140.078 128.683 140.837C128.41 141.596 127.931 142.264 127.3 142.765C126.668 143.267 125.91 143.582 125.11 143.676C124.31 143.769 123.499 143.637 122.77 143.294C122.04 142.952 121.421 142.412 120.981 141.736C120.541 141.06 120.298 140.275 120.279 139.468C120.26 138.661 120.466 137.865 120.874 137.169Z" fill="#FFB6B6"/>
<path d="M113.647 38.3604C113.647 38.3604 133.592 46.3418 133.76 51.2351C133.928 56.1284 133.573 59.0938 134.451 78.6883L130.911 131.083C130.911 131.083 117.056 133.117 118.662 130.076C120.268 127.034 119.876 125.528 119.876 125.528C119.876 125.528 117.022 124.178 117.996 120.548C118.97 116.917 116.485 98.4455 116.485 98.4455L116.302 65.5982L113.647 38.3604Z" fill="#7E0772"/>
</g>
<defs>
<clipPath id="clip0_1_343">
<rect width="198" height="151" fill="white"/>
</clipPath>
</defs>
</svg>
