<svg width="309" height="241" viewBox="0 0 309 241" fill="none" xmlns="http://www.w3.org/2000/svg">
<g clip-path="url(#clip0_1_261)">
<path d="M64.1481 158.521C50.1777 144.739 44.2773 130.36 47.5333 118.034C51.7117 102.217 70.2746 91.2806 98.4621 88.0294L98.5662 88.9367C70.7711 92.1424 52.4914 102.833 48.4142 118.268C45.2454 130.263 51.0602 144.328 64.7875 157.871L64.1481 158.521Z" fill="white"/>
<path d="M198.939 207.445C181.503 207.445 162.556 204.848 143.736 199.855C120.463 193.681 99.1234 184.361 82.0254 172.903L82.5317 172.144C99.5474 183.546 120.792 192.824 143.969 198.972C164.914 204.53 186.016 207.104 204.986 206.425L205.019 207.337C203.015 207.409 200.989 207.445 198.939 207.445Z" fill="white"/>
<path d="M238.94 201.703L238.648 200.838C254.242 195.554 263.995 187.042 266.854 176.222C270.487 162.468 262.593 146.506 244.626 131.278C226.567 115.972 200.526 103.272 171.299 95.5182L171.532 94.6354C200.887 102.424 227.055 115.189 245.214 130.581C263.465 146.049 271.463 162.341 267.735 176.456C264.794 187.586 254.837 196.316 238.94 201.703Z" fill="white"/>
<path d="M95.7496 207.827C61.489 192.599 35.0887 172.843 21.4121 152.197L22.1711 151.692C35.7531 172.195 62.0149 191.834 96.1189 206.992L95.7496 207.827Z" fill="white"/>
<path d="M216.207 234.208C212.673 234.208 209.079 234.128 205.424 233.97L205.463 233.058C232.736 234.241 256.799 230.971 275.056 223.598L275.397 224.445C259.471 230.876 239.172 234.208 216.207 234.208Z" fill="white"/>
<path d="M196.329 88.8482C190.666 87.0006 184.842 85.2803 179.017 83.7349C145.499 74.8423 112.55 71.685 83.7313 74.606L83.6396 73.6974C112.566 70.7668 145.627 73.9317 179.25 82.8521C185.091 84.4019 190.932 86.1272 196.611 87.9801L196.329 88.8482Z" fill="white"/>
<path d="M42.7365 159.891C28.7661 146.108 22.8657 131.73 26.1216 119.404C30.3001 103.587 48.863 92.6503 77.0505 89.3991L77.1546 90.3064C49.3595 93.5121 31.0798 104.203 27.0025 119.638C23.8338 131.633 29.6485 145.698 43.3758 159.24L42.7365 159.891Z" fill="white"/>
<path d="M177.527 208.815C160.091 208.815 141.144 206.218 122.324 201.225C99.0505 195.05 77.7113 185.73 60.6133 174.272L61.1196 173.513C78.1353 184.916 99.38 194.193 122.557 200.342C143.502 205.899 164.604 208.474 183.574 207.795L183.607 208.707C181.603 208.779 179.577 208.815 177.527 208.815Z" fill="white"/>
<path d="M217.527 203.073L217.236 202.208C232.83 196.924 242.583 188.412 245.442 177.592C249.075 163.837 241.181 147.876 223.214 132.647C205.155 117.342 179.114 104.642 149.887 96.8879L150.12 96.0051C179.475 103.793 205.643 116.559 223.802 131.95C242.053 147.419 250.051 163.711 246.322 177.826C243.382 188.956 233.425 197.686 217.527 203.073Z" fill="white"/>
<path d="M74.3375 209.196C40.0769 193.969 13.6765 174.213 0 153.567L0.758999 153.062C14.341 173.564 40.6028 193.204 74.7068 208.362L74.3375 209.196Z" fill="white"/>
<path d="M194.795 235.577C191.261 235.577 187.667 235.498 184.013 235.34L184.052 234.428C211.324 235.611 235.388 232.34 253.644 224.967L253.985 225.814C238.059 232.245 217.76 235.577 194.795 235.577Z" fill="white"/>
<path d="M174.917 90.2179C169.254 88.3703 163.429 86.65 157.605 85.1046C124.087 76.212 91.1378 73.0547 62.3192 75.9757L62.2275 75.0671C91.1536 72.1365 124.215 75.3014 157.838 84.2218C163.679 85.7716 169.52 87.4969 175.199 89.3498L174.917 90.2179Z" fill="white"/>
<path d="M15.5301 135.434C22.0777 128.077 32.5223 123.593 41.9874 126.277C33.2554 132.47 26.9906 141.558 24.3014 151.934C23.2788 155.94 22.5575 160.501 19.2336 162.95C17.1654 164.474 14.425 164.838 11.8815 164.491C9.33791 164.144 6.93288 163.153 4.56031 162.171L3.92188 162.226C5.75743 152.541 8.98242 142.791 15.5301 135.434Z" fill="white"/>
<path d="M41.9585 126.482C34.045 128.402 26.9364 132.772 21.6424 138.972C20.4791 140.286 19.5297 141.776 18.8294 143.386C18.1977 144.977 18.0027 146.709 18.2646 148.401C18.4772 149.984 18.8775 151.578 18.7025 153.185C18.6007 154.006 18.3269 154.796 17.899 155.504C17.471 156.212 16.8987 156.821 16.2194 157.291C14.5573 158.507 12.5582 159.053 10.5847 159.518C8.39357 160.034 6.10949 160.536 4.32337 161.995C4.10695 162.172 3.84584 161.825 4.06193 161.649C7.16948 159.11 11.4883 159.436 14.9265 157.592C16.5308 156.731 17.8861 155.381 18.2156 153.528C18.5038 151.908 18.0924 150.263 17.8633 148.663C17.5837 147.016 17.7107 145.325 18.2332 143.739C18.8495 142.098 19.74 140.574 20.8665 139.232C23.3546 136.171 26.3075 133.521 29.617 131.379C33.3806 128.913 37.5373 127.111 41.9073 126.05C42.1778 125.985 42.2272 126.417 41.9585 126.482Z" fill="white"/>
<path d="M23.2297 136.875C22.3124 135.844 21.7908 134.519 21.758 133.138C21.7252 131.757 22.1834 130.409 23.0507 129.335C23.2269 129.118 23.5712 129.383 23.3947 129.599C22.5852 130.598 22.1586 131.854 22.1917 133.14C22.2249 134.426 22.7157 135.658 23.5756 136.613C23.7622 136.821 23.4153 137.082 23.2297 136.875Z" fill="white"/>
<path d="M18.0514 147.613C20.8634 147.8 23.6424 146.918 25.8344 145.143C26.0514 144.967 26.3126 145.314 26.0958 145.49C23.8114 147.333 20.9175 148.244 17.9917 148.043C17.7129 148.024 17.7741 147.594 18.0514 147.613Z" fill="white"/>
<path d="M33.4782 129.481C33.7502 129.954 34.1352 130.352 34.5986 130.64C35.062 130.927 35.5893 131.094 36.1332 131.127C36.4122 131.142 36.3507 131.573 36.0735 131.557C35.4728 131.518 34.8906 131.333 34.3779 131.017C33.8652 130.7 33.4376 130.263 33.1324 129.743C33.0995 129.697 33.0856 129.639 33.0934 129.583C33.1013 129.526 33.1303 129.475 33.1746 129.439C33.2206 129.404 33.2782 129.389 33.3351 129.397C33.392 129.405 33.4434 129.435 33.4782 129.481Z" fill="white"/>
<path d="M55.4231 156.818C55.2487 156.813 55.0742 156.808 54.8975 156.806C52.5516 156.752 50.2051 156.89 47.8814 157.217C47.7013 157.239 47.5192 157.264 47.3401 157.292C41.75 158.139 36.3655 160.02 31.4603 162.837C29.5094 163.96 27.6466 165.23 25.888 166.636C23.4594 168.578 20.9803 170.877 18.1371 171.873C17.8416 171.98 17.5398 172.068 17.2334 172.138L4.03868 163.002C4.01909 162.966 3.99729 162.933 3.97755 162.897L3.43408 162.557C3.51973 162.478 3.61024 162.398 3.69589 162.319C3.74538 162.273 3.79782 162.229 3.8473 162.183C3.88122 162.153 3.91531 162.123 3.94421 162.094C3.95547 162.084 3.96687 162.074 3.97606 162.067C4.00496 162.038 4.03488 162.015 4.0617 161.989C4.56644 161.54 5.07521 161.095 5.588 160.652C5.59008 160.649 5.59008 160.649 5.59511 160.648C9.51089 157.284 13.7413 154.219 18.3015 151.894C18.4387 151.824 18.5779 151.751 18.7211 151.685C20.7825 150.649 22.9249 149.783 25.127 149.096C26.334 148.724 27.559 148.414 28.7974 148.166C31.9983 147.531 35.2789 147.405 38.5189 147.792C44.9777 148.565 51.118 151.399 55.1211 156.431C55.2234 156.56 55.3229 156.686 55.4231 156.818Z" fill="white"/>
<path d="M55.278 156.965C47.8059 153.724 39.5046 152.924 31.5532 154.68C29.8347 155.027 28.1817 155.644 26.6548 156.508C25.1947 157.397 23.9987 158.662 23.1913 160.171C22.4102 161.562 21.7721 163.077 20.667 164.254C20.0924 164.849 19.399 165.314 18.6321 165.621C17.8653 165.928 17.0424 166.069 16.2174 166.035C14.1596 166.003 12.2358 165.232 10.3807 164.413C8.32089 163.503 6.1958 162.526 3.89296 162.613C3.61394 162.624 3.61384 162.189 3.89244 162.179C7.89898 162.026 11.1515 164.892 15.0046 165.495C16.8026 165.775 18.6959 165.515 20.0721 164.235C21.2755 163.115 21.9349 161.554 22.7136 160.137C23.4797 158.654 24.5968 157.381 25.9671 156.429C27.4451 155.491 29.0717 154.811 30.7772 154.42C34.6028 153.477 38.5527 153.142 42.4819 153.429C46.9682 153.731 51.3698 154.8 55.4964 156.59C55.7517 156.701 55.5317 157.076 55.278 156.965Z" fill="white"/>
<path d="M34.0801 153.963C33.9672 152.587 34.3465 151.214 35.1501 150.092C35.9537 148.969 37.1293 148.169 38.467 147.835C38.7378 147.768 38.854 148.187 38.5827 148.254C37.3365 148.563 36.2415 149.308 35.4953 150.355C34.7491 151.402 34.4009 152.681 34.5136 153.963C34.5378 154.241 34.1041 154.24 34.0801 153.963Z" fill="white"/>
<path d="M23.4948 159.413C25.6275 161.259 28.3762 162.231 31.1927 162.137C31.4718 162.127 31.472 162.562 31.1933 162.571C28.2621 162.664 25.4037 161.646 23.1886 159.72C22.9775 159.536 23.2849 159.23 23.4948 159.413Z" fill="white"/>
<path d="M46.7047 154.243C46.6376 154.785 46.7058 155.335 46.9033 155.844C47.1007 156.353 47.4212 156.805 47.836 157.159C48.0492 157.34 47.7416 157.646 47.5298 157.467C47.0734 157.073 46.72 156.574 46.5006 156.012C46.2812 155.45 46.2024 154.843 46.2712 154.244C46.2729 154.187 46.2963 154.133 46.3365 154.092C46.3767 154.052 46.4308 154.028 46.4877 154.026C46.5451 154.027 46.6001 154.049 46.6407 154.09C46.6814 154.131 46.7044 154.186 46.7047 154.243Z" fill="white"/>
<path d="M272.089 195.743C268.39 186.609 260.057 178.868 250.242 178.208C256.389 186.981 259.242 197.651 258.294 208.329C257.914 212.446 257.064 216.985 259.373 220.412C260.81 222.543 263.269 223.809 265.781 224.339C268.293 224.869 270.89 224.745 273.454 224.619L274.037 224.887C275.556 215.147 275.789 204.878 272.089 195.743Z" fill="white"/>
<path d="M250.201 178.41C257.01 182.884 262.239 189.394 265.146 197.016C265.801 198.646 266.196 200.369 266.315 202.122C266.376 203.833 265.979 205.53 265.165 207.035C264.434 208.454 263.523 209.821 263.148 211.393C262.969 212.201 262.962 213.037 263.127 213.848C263.293 214.658 263.628 215.425 264.11 216.097C265.267 217.802 266.967 218.989 268.67 220.092C270.56 221.316 272.543 222.558 273.736 224.534C273.881 224.774 274.243 224.535 274.099 224.296C272.023 220.858 267.847 219.71 265.227 216.815C264.004 215.464 263.181 213.736 263.492 211.88C263.764 210.257 264.703 208.847 265.455 207.417C266.271 205.96 266.718 204.325 266.758 202.655C266.728 200.902 266.401 199.166 265.79 197.523C264.473 193.802 262.581 190.311 260.182 187.179C257.464 183.59 254.154 180.492 250.394 178.021C250.161 177.868 249.97 178.258 250.201 178.41Z" fill="white"/>
<path d="M264.355 194.507C265.564 193.845 266.5 192.773 266.994 191.483C267.488 190.193 267.509 188.769 267.052 187.466C266.959 187.202 266.546 187.335 266.639 187.599C267.067 188.812 267.047 190.139 266.585 191.339C266.122 192.539 265.247 193.534 264.117 194.144C263.871 194.277 264.111 194.639 264.355 194.507Z" fill="white"/>
<path d="M265.631 206.364C262.919 205.594 260.598 203.827 259.129 201.417C258.983 201.178 258.621 201.417 258.766 201.655C260.3 204.16 262.719 205.994 265.542 206.79C265.812 206.866 265.898 206.44 265.631 206.364Z" fill="white"/>
<path d="M257.182 184.091C256.767 184.446 256.271 184.691 255.738 184.805C255.206 184.92 254.653 184.9 254.13 184.747C253.862 184.668 253.775 185.094 254.041 185.172C254.62 185.338 255.231 185.36 255.82 185.235C256.409 185.109 256.958 184.842 257.42 184.455C257.466 184.422 257.499 184.373 257.51 184.317C257.522 184.261 257.512 184.203 257.482 184.154C257.45 184.106 257.401 184.073 257.345 184.061C257.289 184.049 257.23 184.06 257.182 184.091Z" fill="white"/>
<path d="M227.345 202.446C227.511 202.501 227.677 202.555 227.844 202.612C230.072 203.352 232.236 204.271 234.315 205.362C234.477 205.444 234.64 205.529 234.799 205.615C239.78 208.296 244.221 211.881 247.896 216.186C249.356 217.901 250.685 219.725 251.87 221.641C253.506 224.288 255.069 227.289 257.413 229.184C257.656 229.384 257.91 229.57 258.175 229.739L273.666 225.578C273.697 225.551 273.729 225.527 273.759 225.5L274.385 225.363C274.331 225.259 274.273 225.154 274.218 225.05C274.187 224.991 274.153 224.931 274.121 224.872C274.099 224.832 274.077 224.792 274.06 224.755C274.053 224.742 274.045 224.729 274.039 224.719C274.021 224.682 274.001 224.649 273.985 224.616C273.66 224.024 273.33 223.433 272.996 222.843C272.995 222.839 272.995 222.839 272.99 222.837C270.43 218.35 267.474 214.038 263.959 210.312C263.853 210.2 263.746 210.084 263.634 209.974C262.04 208.304 260.312 206.767 258.469 205.378C257.457 204.621 256.407 203.916 255.324 203.266C252.522 201.59 249.475 200.366 246.293 199.639C239.951 198.192 233.217 198.793 227.76 202.183C227.62 202.27 227.484 202.356 227.345 202.446Z" fill="white"/>
<path d="M227.432 202.634C235.557 202.098 243.644 204.141 250.544 208.473C252.046 209.379 253.396 210.516 254.544 211.844C255.621 213.173 256.323 214.767 256.578 216.46C256.846 218.034 256.94 219.676 257.585 221.157C257.927 221.91 258.424 222.582 259.044 223.13C259.663 223.677 260.391 224.087 261.179 224.332C263.128 224.996 265.198 224.918 267.22 224.771C269.465 224.608 271.795 224.403 273.934 225.261C274.193 225.365 274.339 224.956 274.08 224.852C270.358 223.359 266.333 224.963 262.503 224.232C260.715 223.891 259.019 223.008 258.152 221.339C257.395 219.879 257.297 218.186 257.039 216.59C256.815 214.935 256.19 213.359 255.218 212.002C254.141 210.62 252.837 209.432 251.362 208.489C248.075 206.312 244.467 204.667 240.67 203.613C236.344 202.387 231.839 201.911 227.353 202.207C227.075 202.225 227.157 202.652 227.432 202.634Z" fill="white"/>
<path d="M248.404 206.947C248.972 205.688 249.075 204.268 248.695 202.94C248.314 201.612 247.475 200.462 246.328 199.697C246.095 199.543 245.845 199.898 246.078 200.053C247.148 200.763 247.93 201.834 248.281 203.071C248.633 204.309 248.532 205.631 247.996 206.8C247.88 207.054 248.288 207.199 248.404 206.947Z" fill="white"/>
<path d="M256.546 215.644C253.918 216.665 251.003 216.655 248.382 215.617C248.123 215.514 247.977 215.923 248.236 216.026C250.966 217.101 253.999 217.105 256.731 216.037C256.992 215.935 256.805 215.543 256.546 215.644Z" fill="white"/>
<path d="M236.42 202.958C236.301 203.491 236.053 203.986 235.696 204.399C235.339 204.812 234.886 205.129 234.376 205.323C234.115 205.422 234.302 205.814 234.562 205.716C235.124 205.499 235.624 205.148 236.019 204.693C236.414 204.237 236.692 203.692 236.828 203.105C236.845 203.05 236.842 202.991 236.817 202.94C236.793 202.888 236.75 202.848 236.697 202.827C236.643 202.808 236.583 202.811 236.531 202.835C236.48 202.86 236.439 202.904 236.42 202.958Z" fill="white"/>
<path d="M200.319 226.847C202.332 226.847 203.964 225.212 203.964 223.195C203.964 221.177 202.332 219.542 200.319 219.542C198.307 219.542 196.675 221.177 196.675 223.195C196.675 225.212 198.307 226.847 200.319 226.847Z" fill="#B21636"/>
<path d="M213.229 164.638C215.242 164.638 216.874 163.003 216.874 160.985C216.874 158.968 215.242 157.333 213.229 157.333C211.216 157.333 209.584 158.968 209.584 160.985C209.584 163.003 211.216 164.638 213.229 164.638Z" fill="white"/>
<path d="M145.412 63.3258C147.425 63.3258 149.057 61.6905 149.057 59.6733C149.057 57.6561 147.425 56.0209 145.412 56.0209C143.399 56.0209 141.768 57.6561 141.768 59.6733C141.768 61.6905 143.399 63.3258 145.412 63.3258Z" fill="white"/>
<path d="M69.0376 199.781C69.0376 200.711 69.0682 201.64 69.1331 202.562C69.2018 203.664 69.3202 204.759 69.4805 205.845C70.0194 209.504 71.0494 213.073 72.5425 216.455C72.6188 216.624 72.6952 216.792 72.7716 216.96L72.8861 217.213C72.9243 217.297 72.9663 217.381 73.0044 217.462C73.0579 217.572 73.1075 217.68 73.161 217.787C73.2259 217.921 73.2908 218.055 73.3595 218.188C73.3671 218.204 73.3748 218.223 73.3862 218.242C73.4435 218.357 73.497 218.468 73.5581 218.583C73.5693 218.608 73.582 218.632 73.5962 218.655C73.6611 218.785 73.7299 218.919 73.7986 219.049C73.8749 219.187 73.9475 219.329 74.0238 219.466C74.2071 219.807 74.398 220.144 74.5927 220.48C74.65 220.58 74.7072 220.679 74.7683 220.779C74.8218 220.871 74.8752 220.962 74.9325 221.054C74.9707 221.115 75.0089 221.181 75.047 221.242C75.1081 221.345 75.1692 221.445 75.2341 221.548C75.3754 221.774 75.5205 221.999 75.6617 222.225H75.6655C75.7304 222.328 75.7992 222.432 75.8679 222.531V222.535C76.0702 222.841 76.2802 223.147 76.4902 223.449L76.4917 223.45L76.4929 223.451L76.4938 223.452L76.494 223.453C76.662 223.698 76.8376 223.935 77.0094 224.173V224.176C77.124 224.326 77.2347 224.479 77.3492 224.628C77.4409 224.75 77.5363 224.877 77.6318 224.999C77.6509 225.026 77.6738 225.049 77.6928 225.076V225.079C77.7196 225.114 77.7463 225.144 77.773 225.179C78.1777 225.699 78.5952 226.208 79.0253 226.705L79.094 226.786C79.1169 226.813 79.1437 226.839 79.1666 226.87C79.2048 226.912 79.2391 226.954 79.2773 226.996C79.3116 227.038 79.3498 227.08 79.388 227.123C81.6303 229.654 84.1728 231.901 86.9589 233.814C87.3293 234.071 87.7072 234.32 88.0852 234.561C88.1807 234.622 88.2761 234.683 88.3716 234.74C88.3983 234.76 88.4288 234.779 88.4556 234.798C88.509 234.828 88.5586 234.859 88.6121 234.893C88.6617 234.924 88.7114 234.955 88.7648 234.985C88.9672 235.112 89.1733 235.234 89.3795 235.356C89.4291 235.387 89.4826 235.418 89.536 235.448C89.5857 235.475 89.6391 235.506 89.6926 235.536C89.6926 235.54 89.6926 235.54 89.6964 235.54H89.7002V235.544H89.704C89.9598 235.693 90.2195 235.839 90.4829 235.98C90.6241 236.057 90.7692 236.137 90.9143 236.21C91.2426 236.389 91.5748 236.562 91.907 236.726C92.0253 236.784 92.1475 236.841 92.2658 236.902C92.3651 236.948 92.4644 236.998 92.5636 237.044C92.5942 237.059 92.6209 237.071 92.6476 237.086C92.7316 237.124 92.8118 237.162 92.8958 237.201C92.9874 237.243 93.0791 237.285 93.1669 237.327C93.27 237.373 93.3692 237.419 93.4723 237.461C93.8541 237.633 94.2397 237.797 94.6253 237.954C96.0072 238.522 97.4195 239.013 98.8556 239.424C98.9205 239.443 98.9892 239.462 99.0579 239.481C99.6726 239.653 100.291 239.81 100.913 239.952C102.002 240.204 103.1 240.411 104.208 240.571H104.216C104.35 240.591 104.479 240.61 104.613 240.629C104.624 240.629 104.636 240.633 104.651 240.633C104.651 240.636 104.651 240.636 104.655 240.633C104.8 240.652 104.949 240.671 105.094 240.69C105.104 240.693 105.114 240.694 105.125 240.694C105.262 240.713 105.403 240.728 105.541 240.744C105.69 240.759 105.839 240.774 105.987 240.79C106.102 240.801 106.217 240.812 106.331 240.824C106.341 240.827 106.351 240.829 106.362 240.828C106.465 240.835 106.568 240.847 106.671 240.855H106.686C106.774 240.862 106.866 240.87 106.953 240.878C108.019 240.962 109.088 241 110.172 241C111.344 241 112.508 240.954 113.658 240.855H113.669C113.917 240.832 114.162 240.809 114.406 240.786C114.471 240.778 114.532 240.774 114.597 240.767C114.608 240.767 114.624 240.763 114.635 240.763C114.654 240.759 114.673 240.759 114.696 240.755C114.706 240.756 114.717 240.754 114.727 240.751C114.811 240.744 114.895 240.732 114.982 240.724L115.269 240.69C115.364 240.679 115.46 240.663 115.555 240.652C115.578 240.648 115.597 240.648 115.62 240.644C115.689 240.636 115.758 240.625 115.826 240.614C115.861 240.61 115.895 240.606 115.925 240.602C115.994 240.591 116.059 240.583 116.128 240.571H116.132C118.227 240.269 120.295 239.802 122.317 239.175C122.424 239.14 122.53 239.11 122.637 239.075C122.641 239.075 122.645 239.072 122.649 239.072C122.679 239.06 122.714 239.052 122.744 239.041C123.031 238.949 123.313 238.854 123.596 238.754C123.985 238.624 124.371 238.482 124.756 238.337C124.859 238.295 124.963 238.257 125.066 238.215C125.276 238.134 125.482 238.05 125.688 237.966C126.039 237.824 126.39 237.675 126.738 237.522C127.062 237.377 127.383 237.231 127.704 237.078C127.711 237.074 127.723 237.074 127.73 237.067C127.803 237.032 127.876 236.998 127.944 236.963H127.948C129.706 236.118 131.402 235.147 133.022 234.059C133.541 233.711 134.053 233.352 134.557 232.98C134.962 232.678 135.359 232.372 135.756 232.058C137.715 230.497 139.528 228.76 141.173 226.87V226.866C141.292 226.736 141.402 226.602 141.517 226.468C141.536 226.449 141.551 226.43 141.567 226.415C141.639 226.327 141.708 226.243 141.78 226.158V226.155C141.876 226.044 141.971 225.929 142.063 225.814C142.086 225.787 142.105 225.764 142.124 225.741V225.737C142.2 225.646 142.273 225.554 142.349 225.458C142.387 225.412 142.422 225.366 142.46 225.32V225.317C142.685 225.033 142.903 224.75 143.121 224.46C143.178 224.383 143.235 224.303 143.296 224.222C143.571 223.851 143.838 223.472 144.098 223.094V223.09C144.197 222.948 144.293 222.803 144.392 222.661C144.487 222.516 144.583 222.37 144.678 222.225C144.774 222.072 144.873 221.923 144.968 221.77L144.98 221.747C145.075 221.601 145.171 221.448 145.262 221.299C145.335 221.177 145.407 221.058 145.48 220.94C145.526 220.859 145.575 220.779 145.621 220.695C145.639 220.669 145.656 220.642 145.671 220.614C145.778 220.427 145.885 220.239 145.992 220.052C146.118 219.834 146.24 219.612 146.362 219.39C146.408 219.298 146.457 219.206 146.507 219.114C146.526 219.084 146.541 219.053 146.557 219.023C146.614 218.915 146.671 218.805 146.725 218.694C146.782 218.586 146.839 218.475 146.896 218.365C146.95 218.257 147.007 218.146 147.061 218.035C147.103 217.951 147.141 217.867 147.183 217.783C147.186 217.776 147.19 217.77 147.194 217.764C147.213 217.722 147.232 217.683 147.248 217.645C147.252 217.639 147.256 217.633 147.259 217.626C147.301 217.542 147.339 217.454 147.381 217.37C147.435 217.259 147.484 217.144 147.538 217.033C147.572 216.956 147.61 216.876 147.645 216.796C147.694 216.685 147.748 216.574 147.794 216.459C147.847 216.344 147.897 216.23 147.946 216.111C147.961 216.082 147.973 216.053 147.985 216.023C148.011 215.969 148.03 215.916 148.053 215.862C148.114 215.721 148.175 215.575 148.233 215.434C148.301 215.273 148.366 215.108 148.427 214.948C148.489 214.799 148.546 214.646 148.603 214.492L148.626 214.439C149.516 212.091 150.19 209.667 150.642 207.196V207.192C150.896 205.782 151.079 204.359 151.188 202.93C151.192 202.849 151.199 202.773 151.203 202.696C151.272 201.728 151.302 200.757 151.302 199.781C151.302 199.349 151.295 198.92 151.283 198.491C151.017 189.529 147.828 180.901 142.204 173.928C142.082 173.775 141.96 173.621 141.834 173.468C141.708 173.315 141.578 173.166 141.452 173.017C137.267 168.105 131.988 164.247 126.042 161.755C120.096 159.262 113.649 158.205 107.22 158.668C100.792 159.131 94.5617 161.101 89.0322 164.419C83.5027 167.738 78.8287 172.312 75.3868 177.773C75.1998 178.071 75.0127 178.374 74.8333 178.676C74.65 178.982 74.4744 179.288 74.2987 179.598C70.84 185.759 69.0277 192.711 69.0376 199.781Z" fill="white"/>
<path d="M108.537 172.819C115.301 174.559 122.232 175.561 129.21 175.81C130.266 175.867 131.323 175.86 132.378 175.788C134.695 175.593 136.68 174.863 138.89 174.464C139.953 174.273 141.136 174.133 142.206 173.926C141.959 173.619 141.707 173.315 141.451 173.016C139.144 173.211 136.802 173.85 134.467 174.147C130.499 174.653 126.052 174.089 123.044 172.697C121.584 172.022 120.466 171.179 119.012 170.5C118.814 170.399 118.599 170.333 118.379 170.306C117.959 170.293 117.545 170.401 117.185 170.617C114.745 171.851 111.202 172.854 107.913 172.302C107.668 172.495 108.134 172.713 108.537 172.819Z" fill="#13B351"/>
<path d="M93.9852 177.164C93.9552 177.158 93.9251 177.154 93.895 177.149C94.0214 177.071 94.1403 176.981 94.2504 176.881L93.9852 177.164Z" fill="white"/>
<path d="M74.2998 179.6C75.6732 179.71 77.0539 179.791 78.4417 179.845C79.4969 179.902 80.5547 179.895 81.6091 179.824C83.9262 179.627 85.9109 178.899 88.1214 178.5C90.1471 178.135 92.6089 177.959 93.8951 177.149C90.5708 176.572 87.1264 177.746 83.6985 178.183C80.9256 178.525 78.1148 178.386 75.3891 177.772C75.0096 178.37 74.6465 178.979 74.2998 179.6Z" fill="white"/>
<path d="M90.9146 236.21C91.2429 236.39 91.5751 236.562 91.9072 236.726C92.0256 236.784 92.1477 236.841 92.2661 236.902C92.3654 236.948 92.4646 236.998 92.5639 237.044C92.5944 237.059 92.6212 237.071 92.6479 237.086C92.7319 237.124 92.8121 237.162 92.8961 237.201C92.9877 237.243 93.0793 237.285 93.1671 237.327C93.2702 237.373 93.3695 237.419 93.4726 237.461C93.8544 237.633 94.24 237.798 94.6256 237.954C96.0075 238.522 97.4197 239.013 98.8558 239.424C98.9207 239.443 98.9895 239.462 99.0582 239.481C99.6729 239.653 100.291 239.81 100.914 239.952C102.002 240.204 103.1 240.411 104.209 240.572H104.216C104.35 240.591 104.48 240.61 104.613 240.629C104.625 240.629 104.636 240.633 104.651 240.633C104.651 240.637 104.651 240.637 104.655 240.633C104.8 240.652 104.949 240.671 105.094 240.69C105.104 240.693 105.115 240.694 105.125 240.694C105.262 240.713 105.404 240.728 105.541 240.744C105.69 240.759 105.839 240.774 105.988 240.79C106.102 240.801 106.217 240.813 106.331 240.824C106.341 240.827 106.352 240.829 106.362 240.828C106.465 240.836 106.568 240.847 106.671 240.855H106.686C106.774 240.862 106.866 240.87 106.954 240.878C108.019 240.962 109.088 241 110.172 241C111.344 241 112.509 240.954 113.658 240.855H113.669C113.918 240.832 114.162 240.809 114.406 240.786C114.471 240.778 114.532 240.774 114.597 240.767C114.609 240.767 114.624 240.763 114.635 240.763C114.654 240.759 114.673 240.759 114.696 240.755C114.707 240.756 114.717 240.754 114.727 240.751C114.811 240.744 114.895 240.732 114.983 240.725L115.269 240.69C115.365 240.679 115.46 240.663 115.555 240.652C115.578 240.648 115.597 240.648 115.62 240.644C115.689 240.637 115.758 240.625 115.826 240.614C115.861 240.61 115.895 240.606 115.926 240.602C115.994 240.591 116.059 240.583 116.128 240.572H116.132C118.227 240.269 120.295 239.802 122.317 239.175C122.424 239.141 122.531 239.11 122.638 239.076C122.145 236.772 121.13 234.612 119.671 232.764C118.213 230.915 116.35 229.428 114.227 228.416C114.752 227.914 115.115 227.267 115.269 226.556C115.368 226.098 115.376 225.625 115.292 225.165C115.208 224.704 115.034 224.264 114.78 223.87C114.285 223.108 113.508 222.574 112.619 222.386L106.961 221.2C106.05 221.022 105.106 221.211 104.334 221.727C103.562 222.243 103.024 223.044 102.838 223.955C102.78 224.234 102.755 224.519 102.762 224.804C97.3134 228.439 93.3924 232.208 90.9146 236.21Z" fill="#7E0772"/>
<path d="M107.621 218.96C114.131 218.96 119.409 213.671 119.409 207.147C119.409 200.622 114.131 195.333 107.621 195.333C101.111 195.333 95.833 200.622 95.833 207.147C95.833 213.671 101.111 218.96 107.621 218.96Z" fill="#FFB8B8"/>
<path d="M100.273 217.332C99.0164 216.471 97.7327 214.818 96.8757 213.578C95.7401 211.949 94.9587 210.099 94.5822 208.148C94.2057 206.197 94.2424 204.188 94.6901 202.252C94.8328 201.478 95.1837 200.758 95.7048 200.169C96.26 199.618 97.1668 199.357 97.8444 199.747C97.6595 199.25 97.578 198.721 97.6051 198.192C97.6321 197.663 97.767 197.145 98.0015 196.671C98.4778 195.723 99.1679 194.899 100.017 194.265C101.641 193.011 103.574 192.222 105.609 191.981C107.645 191.739 109.708 192.054 111.579 192.893C112.315 193.235 111.106 190.594 111.877 190.849C112.642 191.146 113.494 191.131 114.248 190.807C114.973 190.441 117.376 192.614 117.098 191.85C117.648 192.1 118.126 192.486 118.487 192.971C118.848 193.456 119.081 194.025 119.164 194.625C119.247 195.225 119.177 195.836 118.961 196.401C118.744 196.966 118.389 197.468 117.927 197.858C117.319 198.373 116.559 198.669 115.893 199.106C114.726 199.929 113.9 201.152 113.571 202.543C113.241 203.935 113.432 205.399 114.107 206.659C113.406 206.208 112.637 205.873 111.829 205.667C111.424 205.568 111.001 205.568 110.596 205.665C110.191 205.763 109.814 205.956 109.499 206.229C109.235 206.532 109.035 206.885 108.913 207.268C108.79 207.651 108.747 208.054 108.786 208.454C108.812 209.256 109.002 210.046 109.024 210.848C109.086 213.2 110.344 217.674 108.524 218.924C107.087 219.911 101.99 218.507 100.273 217.332Z" fill="#2F2E41"/>
<path d="M115.726 148.017C115.478 148.016 115.232 147.967 115.003 147.871C114.662 147.733 114.369 147.495 114.165 147.188C113.96 146.881 113.853 146.52 113.857 146.151V144.281C113.856 143.889 113.701 143.512 113.424 143.235C113.147 142.958 112.772 142.802 112.381 142.801C111.888 142.801 111.416 142.604 111.067 142.255C110.719 141.906 110.523 141.433 110.522 140.939V115.321C110.523 114.828 110.719 114.354 111.067 114.005C111.416 113.656 111.888 113.46 112.38 113.459H197.072C197.565 113.46 198.037 113.656 198.385 114.005C198.734 114.354 198.929 114.827 198.93 115.321V140.939C198.929 141.433 198.734 141.906 198.385 142.255C198.037 142.604 197.565 142.801 197.072 142.801H122.296C122.102 142.801 121.91 142.839 121.731 142.913C121.551 142.988 121.389 143.097 121.252 143.235L117.029 147.467C116.859 147.641 116.656 147.779 116.433 147.873C116.209 147.967 115.969 148.016 115.726 148.017Z" fill="white"/>
<path d="M115.726 148.4C115.428 148.399 115.132 148.34 114.857 148.224C114.445 148.058 114.093 147.771 113.846 147.401C113.6 147.031 113.47 146.596 113.475 146.151V144.281C113.475 143.99 113.359 143.711 113.154 143.506C112.949 143.3 112.671 143.184 112.38 143.184C111.787 143.183 111.217 142.946 110.797 142.526C110.377 142.105 110.141 141.534 110.141 140.939V115.321C110.141 114.726 110.377 114.156 110.797 113.735C111.217 113.314 111.786 113.077 112.38 113.076H197.072C197.666 113.077 198.235 113.314 198.655 113.735C199.075 114.155 199.311 114.726 199.312 115.321V140.939C199.311 141.534 199.075 142.105 198.655 142.526C198.235 142.946 197.666 143.183 197.072 143.184H122.296C122.152 143.183 122.01 143.212 121.877 143.267C121.744 143.322 121.623 143.403 121.522 143.505L117.298 147.738C117.093 147.947 116.848 148.113 116.579 148.226C116.309 148.34 116.019 148.399 115.726 148.4ZM112.38 113.842C111.989 113.842 111.614 113.998 111.337 114.276C111.06 114.553 110.905 114.929 110.904 115.321V140.939C110.905 141.331 111.06 141.707 111.337 141.985C111.614 142.262 111.989 142.418 112.38 142.419C112.873 142.419 113.345 142.616 113.694 142.965C114.042 143.314 114.238 143.787 114.238 144.281V146.151C114.238 146.443 114.325 146.729 114.487 146.972C114.65 147.216 114.88 147.405 115.15 147.517C115.42 147.629 115.716 147.658 116.003 147.601C116.289 147.544 116.552 147.403 116.758 147.197L120.982 142.964C121.154 142.791 121.359 142.653 121.584 142.559C121.81 142.466 122.052 142.418 122.296 142.419H197.072C197.463 142.418 197.839 142.262 198.115 141.985C198.392 141.707 198.548 141.331 198.548 140.939V115.321C198.548 114.929 198.392 114.553 198.115 114.275C197.839 113.998 197.463 113.842 197.072 113.842L112.38 113.842Z" fill="#3F3D56"/>
<path d="M189.794 125.057H121.118C120.856 125.057 120.604 124.953 120.419 124.767C120.233 124.581 120.129 124.329 120.129 124.066C120.129 123.803 120.233 123.551 120.419 123.365C120.604 123.179 120.856 123.075 121.118 123.075H189.794C190.056 123.075 190.308 123.179 190.494 123.365C190.679 123.551 190.783 123.803 190.783 124.066C190.783 124.329 190.679 124.581 190.494 124.767C190.308 124.953 190.056 125.057 189.794 125.057Z" fill="#7E0772"/>
<path d="M189.668 129.269H121.118C120.856 129.269 120.604 129.164 120.419 128.978C120.233 128.792 120.129 128.54 120.129 128.277C120.129 128.014 120.233 127.762 120.419 127.576C120.604 127.39 120.856 127.286 121.118 127.286H189.668C189.93 127.286 190.182 127.39 190.367 127.576C190.553 127.762 190.657 128.014 190.657 128.277C190.657 128.54 190.553 128.792 190.367 128.978C190.182 129.164 189.93 129.269 189.668 129.269Z" fill="white"/>
<path d="M189.6 133.48H121.118C120.856 133.48 120.604 133.375 120.419 133.189C120.233 133.003 120.129 132.751 120.129 132.488C120.129 132.226 120.233 131.973 120.419 131.787C120.604 131.602 120.856 131.497 121.118 131.497H189.6C189.862 131.497 190.114 131.602 190.299 131.787C190.485 131.973 190.589 132.226 190.589 132.488C190.589 132.751 190.485 133.003 190.299 133.189C190.114 133.375 189.862 133.48 189.6 133.48Z" fill="#959595"/>
<path d="M297.945 109.484C297.945 110.413 297.914 111.343 297.849 112.265C297.781 113.367 297.662 114.462 297.502 115.548C296.963 119.207 295.933 122.776 294.44 126.158C294.364 126.326 294.287 126.495 294.211 126.663L294.096 126.916C294.058 127 294.016 127.084 293.978 127.164C293.925 127.275 293.875 127.382 293.822 127.49C293.757 127.623 293.692 127.757 293.623 127.891C293.615 127.907 293.608 127.926 293.596 127.945C293.539 128.06 293.486 128.171 293.424 128.285C293.413 128.31 293.4 128.335 293.386 128.358C293.321 128.488 293.253 128.622 293.184 128.752C293.108 128.89 293.035 129.032 292.959 129.169C292.775 129.51 292.585 129.846 292.39 130.183C292.333 130.283 292.275 130.382 292.214 130.482C292.161 130.573 292.107 130.665 292.05 130.757C292.012 130.818 291.974 130.883 291.935 130.945C291.874 131.048 291.813 131.147 291.748 131.251C291.607 131.476 291.462 131.702 291.321 131.928H291.317C291.252 132.031 291.183 132.135 291.115 132.234V132.238C290.912 132.544 290.702 132.85 290.492 133.152C290.492 133.152 290.491 133.152 290.491 133.153C290.49 133.153 290.49 133.153 290.49 133.153C290.489 133.154 290.489 133.154 290.489 133.155C290.489 133.155 290.488 133.156 290.488 133.156C290.32 133.401 290.145 133.638 289.973 133.875V133.879C289.858 134.028 289.748 134.181 289.633 134.331C289.542 134.453 289.446 134.579 289.351 134.702C289.332 134.729 289.309 134.752 289.29 134.778V134.782C289.263 134.817 289.236 134.847 289.209 134.882C288.805 135.402 288.387 135.911 287.957 136.408L287.888 136.489C287.866 136.515 287.839 136.542 287.816 136.573C287.778 136.615 287.743 136.657 287.705 136.699C287.671 136.741 287.633 136.783 287.594 136.825C285.352 139.357 282.81 141.604 280.024 143.517C279.653 143.774 279.275 144.022 278.897 144.263C278.802 144.325 278.706 144.386 278.611 144.443C278.584 144.462 278.554 144.481 278.527 144.501C278.473 144.531 278.424 144.562 278.37 144.596C278.321 144.627 278.271 144.657 278.218 144.688C278.015 144.814 277.809 144.937 277.603 145.059C277.553 145.09 277.5 145.12 277.446 145.151C277.397 145.178 277.343 145.208 277.29 145.239C277.29 145.243 277.29 145.243 277.286 145.243H277.282V145.247H277.278C277.023 145.396 276.763 145.541 276.5 145.683C276.358 145.759 276.213 145.84 276.068 145.912C275.74 146.092 275.408 146.264 275.076 146.429C274.957 146.486 274.835 146.544 274.717 146.605C274.617 146.651 274.518 146.701 274.419 146.747C274.388 146.762 274.362 146.773 274.335 146.789C274.251 146.827 274.171 146.865 274.087 146.903C273.995 146.946 273.903 146.988 273.816 147.03C273.713 147.076 273.613 147.122 273.51 147.164C273.128 147.336 272.743 147.5 272.357 147.657C270.975 148.225 269.563 148.715 268.127 149.126C268.062 149.146 267.993 149.165 267.925 149.184C267.31 149.356 266.691 149.513 266.069 149.654C264.981 149.907 263.883 150.114 262.774 150.274H262.767C262.633 150.293 262.503 150.313 262.369 150.332C262.358 150.332 262.347 150.336 262.331 150.336C262.331 150.339 262.331 150.339 262.327 150.336C262.182 150.355 262.034 150.374 261.888 150.393C261.879 150.396 261.868 150.397 261.858 150.397C261.72 150.416 261.579 150.431 261.442 150.446C261.293 150.462 261.144 150.477 260.995 150.492C260.88 150.504 260.766 150.515 260.651 150.527C260.642 150.53 260.631 150.532 260.621 150.531C260.518 150.538 260.415 150.55 260.312 150.557H260.296C260.209 150.565 260.117 150.573 260.029 150.58C258.964 150.665 257.895 150.703 256.811 150.703C255.638 150.703 254.474 150.657 253.325 150.557H253.313C253.065 150.534 252.821 150.512 252.577 150.489C252.512 150.481 252.451 150.477 252.386 150.469C252.374 150.469 252.359 150.466 252.347 150.466C252.328 150.462 252.309 150.462 252.286 150.458C252.276 150.458 252.266 150.457 252.256 150.454C252.172 150.446 252.088 150.435 252 150.427L251.714 150.393C251.618 150.381 251.523 150.366 251.427 150.355C251.404 150.351 251.385 150.351 251.362 150.347C251.294 150.339 251.225 150.328 251.156 150.316C251.122 150.313 251.088 150.309 251.057 150.305C250.988 150.293 250.923 150.286 250.855 150.274H250.851C248.756 149.972 246.688 149.505 244.666 148.878C244.559 148.843 244.452 148.813 244.345 148.778C244.341 148.778 244.337 148.774 244.334 148.774C244.303 148.763 244.269 148.755 244.238 148.744C243.952 148.652 243.669 148.556 243.387 148.457C242.997 148.327 242.612 148.185 242.226 148.04C242.123 147.998 242.02 147.959 241.917 147.917C241.707 147.837 241.501 147.753 241.295 147.669C240.943 147.527 240.592 147.378 240.245 147.225C239.92 147.079 239.599 146.934 239.279 146.781C239.271 146.777 239.26 146.777 239.252 146.77C239.179 146.735 239.107 146.701 239.038 146.666H239.034C237.276 145.821 235.58 144.85 233.96 143.762C233.441 143.414 232.93 143.054 232.426 142.683C232.021 142.381 231.624 142.075 231.227 141.761C229.268 140.2 227.455 138.463 225.809 136.573V136.569C225.691 136.439 225.58 136.305 225.465 136.171C225.446 136.152 225.431 136.133 225.416 136.118C225.343 136.03 225.275 135.945 225.202 135.861V135.857C225.107 135.746 225.011 135.632 224.92 135.517C224.897 135.49 224.878 135.467 224.858 135.444V135.44C224.782 135.348 224.71 135.257 224.633 135.161C224.595 135.115 224.561 135.069 224.522 135.023V135.019C224.297 134.736 224.08 134.453 223.862 134.162C223.805 134.086 223.747 134.006 223.686 133.925C223.411 133.554 223.144 133.175 222.885 132.796V132.793C222.785 132.651 222.69 132.506 222.591 132.364C222.495 132.219 222.4 132.073 222.304 131.928C222.209 131.775 222.11 131.626 222.014 131.473L222.003 131.45C221.907 131.304 221.812 131.151 221.72 131.002C221.648 130.88 221.575 130.761 221.502 130.642C221.457 130.562 221.407 130.482 221.361 130.397C221.343 130.372 221.327 130.345 221.312 130.317C221.205 130.13 221.098 129.942 220.991 129.755C220.865 129.537 220.743 129.315 220.621 129.093C220.575 129.001 220.525 128.909 220.475 128.817C220.456 128.787 220.441 128.756 220.426 128.725C220.369 128.618 220.311 128.507 220.258 128.396C220.201 128.289 220.143 128.178 220.086 128.067C220.033 127.96 219.975 127.849 219.922 127.738C219.88 127.654 219.842 127.57 219.8 127.486C219.797 127.479 219.793 127.472 219.788 127.467C219.769 127.425 219.75 127.386 219.735 127.348C219.73 127.342 219.726 127.336 219.723 127.329C219.681 127.245 219.643 127.157 219.601 127.073C219.548 126.962 219.498 126.847 219.445 126.736C219.41 126.659 219.372 126.579 219.338 126.499C219.288 126.388 219.235 126.277 219.189 126.162C219.135 126.047 219.086 125.932 219.036 125.814C219.022 125.785 219.009 125.756 218.998 125.726C218.971 125.672 218.952 125.619 218.929 125.565C218.868 125.423 218.807 125.278 218.75 125.137C218.681 124.976 218.616 124.811 218.555 124.651C218.494 124.501 218.437 124.348 218.379 124.195L218.357 124.142C217.467 121.794 216.792 119.369 216.341 116.899V116.895C216.086 115.484 215.904 114.062 215.795 112.633C215.791 112.552 215.783 112.476 215.779 112.399C215.711 111.431 215.68 110.459 215.68 109.484C215.68 109.051 215.688 108.623 215.699 108.194C215.966 99.2321 219.155 90.6041 224.778 83.6304C224.9 83.4774 225.023 83.3243 225.149 83.1713C225.275 83.0182 225.404 82.869 225.53 82.7198C229.716 77.8078 234.994 73.9501 240.94 71.4577C246.886 68.9652 253.333 67.9078 259.762 68.3705C266.191 68.8333 272.421 70.8034 277.95 74.122C283.48 77.4405 288.154 82.0147 291.596 87.4757C291.783 87.7741 291.97 88.0764 292.149 88.3787C292.332 88.6848 292.508 88.9909 292.684 89.3008C296.143 95.4621 297.955 102.414 297.945 109.484Z" fill="white"/>
<path d="M258.446 82.5221C251.682 84.2614 244.751 85.264 237.772 85.5124C236.717 85.57 235.659 85.5628 234.605 85.4908C232.288 85.2955 230.303 84.5657 228.093 84.1668C227.03 83.9756 225.846 83.8358 224.776 83.6292C225.024 83.3219 225.275 83.0183 225.531 82.7185C227.838 82.9138 230.181 83.5532 232.515 83.8502C236.484 84.356 240.93 83.7916 243.939 82.3998C245.398 81.7245 246.516 80.8816 247.971 80.2031C248.169 80.1014 248.383 80.0356 248.604 80.0089C249.023 79.9963 249.437 80.104 249.798 80.3193C252.238 81.5538 255.781 82.5571 259.069 82.0051C259.314 82.1973 258.849 82.4163 258.446 82.5221Z" fill="white"/>
<path d="M272.997 86.8667C273.027 86.8612 273.057 86.8569 273.087 86.8517C272.961 86.7732 272.842 86.6834 272.732 86.5834L272.997 86.8667Z" fill="white"/>
<path d="M292.683 89.3024C291.309 89.4124 289.929 89.4943 288.541 89.5481C287.486 89.6051 286.428 89.5979 285.373 89.5265C283.056 89.3301 281.072 88.6013 278.861 88.2025C276.835 87.8376 274.374 87.6618 273.087 86.8518C276.412 86.2751 279.856 87.449 283.284 87.8859C286.057 88.2276 288.868 88.0885 291.593 87.4747C291.973 88.073 292.336 88.6822 292.683 89.3024Z" fill="white"/>
<path d="M252.174 127.521C258.997 127.521 264.528 121.854 264.528 114.864C264.528 107.874 258.997 102.207 252.174 102.207C245.35 102.207 239.819 107.874 239.819 114.864C239.819 121.854 245.35 127.521 252.174 127.521Z" fill="#E2A9A9"/>
<path d="M276.068 145.912C275.739 146.092 275.407 146.264 275.075 146.429C274.957 146.486 274.835 146.544 274.716 146.605C274.617 146.651 274.518 146.701 274.418 146.747C274.388 146.762 274.361 146.773 274.334 146.789C274.25 146.827 274.17 146.865 274.086 146.903C273.995 146.946 273.903 146.988 273.815 147.03C273.712 147.076 273.613 147.122 273.51 147.164C273.128 147.336 272.742 147.5 272.357 147.657C270.975 148.225 269.563 148.715 268.127 149.126C268.062 149.146 267.993 149.165 267.924 149.184C267.31 149.356 266.691 149.513 266.069 149.654C264.981 149.907 263.882 150.114 262.774 150.274H262.766C262.633 150.293 262.503 150.313 262.369 150.332C262.358 150.332 262.346 150.336 262.331 150.336C262.331 150.339 262.331 150.339 262.327 150.336C262.182 150.355 262.033 150.374 261.888 150.393C261.878 150.396 261.868 150.397 261.858 150.397C261.72 150.416 261.579 150.431 261.441 150.446C261.292 150.462 261.144 150.477 260.995 150.492C260.88 150.504 260.766 150.515 260.651 150.527C260.641 150.53 260.631 150.532 260.621 150.531C260.517 150.538 260.414 150.55 260.311 150.557H260.296C260.208 150.565 260.117 150.573 260.029 150.58C258.964 150.665 257.895 150.703 256.81 150.703C255.638 150.703 254.474 150.657 253.324 150.557H253.313C253.065 150.534 252.821 150.512 252.576 150.489C252.511 150.481 252.45 150.477 252.385 150.469C252.374 150.469 252.359 150.466 252.347 150.466C252.328 150.462 252.309 150.462 252.286 150.458C252.276 150.458 252.265 150.457 252.255 150.454C252.171 150.446 252.087 150.435 252 150.427L251.713 150.393C251.618 150.381 251.522 150.366 251.427 150.355C251.404 150.351 251.385 150.351 251.362 150.347C251.293 150.339 251.225 150.328 251.156 150.316C251.122 150.313 251.087 150.309 251.057 150.305C250.988 150.293 250.923 150.286 250.854 150.274H250.85C248.755 149.972 246.687 149.505 244.665 148.878C244.559 148.843 244.452 148.813 244.345 148.778C244.838 146.474 245.853 144.315 247.311 142.466C248.769 140.618 250.632 139.131 252.756 138.119C252.23 137.617 251.867 136.969 251.713 136.259C251.614 135.801 251.606 135.328 251.69 134.867C251.774 134.406 251.948 133.967 252.202 133.573C252.697 132.811 253.475 132.277 254.363 132.089L260.021 130.903C260.932 130.725 261.876 130.914 262.648 131.43C263.42 131.946 263.958 132.746 264.144 133.657C264.202 133.937 264.228 134.222 264.221 134.507C269.669 138.142 273.59 141.91 276.068 145.912Z" fill="#4EC67C"/>
<path d="M285.232 109.375C283.132 106.921 282.134 103.664 280.455 100.878C278.776 98.0908 275.855 95.5966 272.769 96.2451C270.641 96.6922 268.997 98.5736 268.165 100.671C267.332 102.769 267.176 105.082 267.03 107.348C267.082 102.691 264.021 98.1764 259.803 96.6904C255.586 95.2045 250.539 96.862 247.889 100.603C246.733 99.5291 245.224 98.9175 243.647 98.8843C242.071 98.8511 240.537 99.3987 239.337 100.423C236.966 102.546 236.442 106.587 238.185 109.295C239.928 112.003 243.703 113.012 246.474 111.51L247.453 112.413C246.902 114.345 247.971 116.628 249.768 117.355C251.225 117.945 253.282 117.847 253.828 119.379C254.209 120.45 253.497 121.593 252.739 122.416C251.981 123.239 251.082 124.089 250.991 125.227C250.853 126.945 252.625 128.149 254.236 128.511C258.119 129.386 262.428 127.583 264.666 124.149C264.709 124.083 264.756 124.016 264.807 123.95C266.062 122.341 266.978 120.491 267.496 118.516C268.015 116.54 268.126 114.479 267.823 112.459C267.697 111.665 267.824 111.074 268.37 110.886C270.731 110.074 277.344 111.779 279.345 113.321C281.347 114.862 282.95 116.902 284.878 118.542C286.806 120.183 289.262 121.449 291.71 121.002C293.671 120.644 295.338 119.218 296.46 117.497C297.582 115.777 298.228 113.771 298.806 111.778C294.471 114.288 288.537 113.237 285.232 109.375Z" fill="#2F2E41"/>
<path d="M31.6221 83.8484C31.6221 84.7782 31.6527 85.7079 31.7176 86.63C31.7863 87.732 31.9046 88.8263 32.065 89.9129C32.6039 93.5716 33.6339 97.1406 35.127 100.523C35.2033 100.691 35.2797 100.86 35.356 101.028L35.4706 101.28C35.5087 101.365 35.5507 101.449 35.5889 101.529C35.6424 101.64 35.692 101.747 35.7455 101.854C35.8104 101.988 35.8753 102.122 35.944 102.256C35.9516 102.271 35.9593 102.29 35.9707 102.31C36.028 102.424 36.0814 102.535 36.1425 102.65C36.1537 102.675 36.1665 102.699 36.1807 102.723C36.2456 102.853 36.3143 102.987 36.3831 103.117C36.4594 103.255 36.532 103.396 36.6083 103.534C36.7916 103.875 36.9825 104.211 37.1772 104.548C37.2344 104.647 37.2917 104.747 37.3528 104.846C37.4062 104.938 37.4597 105.03 37.517 105.122C37.5552 105.183 37.5933 105.248 37.6315 105.309C37.6926 105.413 37.7537 105.512 37.8186 105.615C37.9598 105.841 38.1049 106.067 38.2462 106.293H38.25C38.3149 106.396 38.3836 106.499 38.4524 106.599V106.603C38.6547 106.909 38.8647 107.215 39.0747 107.517C39.0752 107.517 39.0757 107.517 39.0761 107.517C39.0766 107.517 39.0771 107.518 39.0774 107.518C39.0778 107.518 39.078 107.519 39.0782 107.519C39.0784 107.52 39.0785 107.52 39.0785 107.521C39.2465 107.766 39.4221 108.003 39.5939 108.24V108.244C39.7084 108.393 39.8192 108.546 39.9337 108.695C40.0253 108.818 40.1208 108.944 40.2162 109.067C40.2353 109.093 40.2582 109.116 40.2773 109.143V109.147C40.304 109.181 40.3308 109.212 40.3575 109.246C40.7622 109.767 41.1796 110.276 41.6098 110.773L41.6785 110.853C41.7014 110.88 41.7281 110.907 41.751 110.938C41.7892 110.98 41.8236 111.022 41.8618 111.064C41.8961 111.106 41.9343 111.148 41.9725 111.19C44.2148 113.721 46.7573 115.969 49.5434 117.882C49.9138 118.138 50.2917 118.387 50.6697 118.628C50.7651 118.689 50.8606 118.751 50.956 118.808C50.9828 118.827 51.0133 118.846 51.04 118.865C51.0935 118.896 51.1431 118.927 51.1966 118.961C51.2462 118.992 51.2958 119.022 51.3493 119.053C51.5516 119.179 51.7578 119.302 51.964 119.424C52.0136 119.455 52.0671 119.485 52.1205 119.516C52.1701 119.543 52.2236 119.573 52.277 119.604C52.277 119.608 52.277 119.608 52.2809 119.608H52.2847V119.611H52.2885C52.5443 119.761 52.8039 119.906 53.0673 120.048C53.2086 120.124 53.3537 120.205 53.4988 120.277C53.8271 120.457 54.1593 120.629 54.4914 120.794C54.6098 120.851 54.732 120.909 54.8503 120.97C54.9496 121.016 55.0488 121.065 55.1481 121.111C55.1787 121.127 55.2054 121.138 55.2321 121.153C55.3161 121.192 55.3963 121.23 55.4803 121.268C55.5719 121.31 55.6635 121.352 55.7513 121.394C55.8544 121.44 55.9537 121.486 56.0568 121.528C56.4386 121.701 56.8242 121.865 57.2098 122.022C58.5917 122.59 60.0039 123.08 61.44 123.491C61.5049 123.51 61.5737 123.529 61.6424 123.549C62.2571 123.721 62.8756 123.878 63.4979 124.019C64.586 124.272 65.6843 124.478 66.7928 124.639H66.8004C66.934 124.658 67.0639 124.677 67.1975 124.696C67.2089 124.696 67.2204 124.7 67.2356 124.7C67.2356 124.704 67.2357 124.704 67.2395 124.7C67.3846 124.719 67.5335 124.739 67.6785 124.758C67.6884 124.761 67.6988 124.762 67.7091 124.761C67.8465 124.781 67.9878 124.796 68.1252 124.811C68.2741 124.827 68.423 124.842 68.5719 124.857C68.6865 124.869 68.801 124.88 68.9155 124.892C68.9253 124.895 68.9357 124.896 68.9461 124.895C69.0492 124.903 69.1522 124.915 69.2553 124.922H69.2706C69.3584 124.93 69.45 124.937 69.5379 124.945C70.6031 125.029 71.6721 125.068 72.7564 125.068C73.9285 125.068 75.0929 125.022 76.2421 124.922H76.2536C76.5017 124.899 76.7461 124.876 76.9904 124.853C77.0553 124.846 77.1164 124.842 77.1813 124.834C77.1928 124.834 77.2081 124.83 77.2195 124.83C77.2386 124.827 77.2577 124.827 77.2806 124.823C77.2909 124.823 77.3012 124.822 77.3111 124.819C77.3951 124.811 77.4791 124.8 77.5669 124.792L77.8533 124.758C77.9487 124.746 78.0442 124.731 78.1396 124.719C78.1625 124.716 78.1816 124.716 78.2045 124.712C78.2733 124.704 78.342 124.693 78.4107 124.681C78.4451 124.677 78.4794 124.673 78.51 124.67C78.5787 124.658 78.6436 124.651 78.7123 124.639H78.7161C80.8112 124.337 82.8792 123.87 84.9012 123.242C85.0081 123.208 85.115 123.177 85.2219 123.143C85.2257 123.143 85.2295 123.139 85.2333 123.139C85.2639 123.128 85.2982 123.12 85.3288 123.109C85.6151 123.017 85.8976 122.921 86.1802 122.822C86.5696 122.692 86.9552 122.55 87.3408 122.405C87.4439 122.362 87.547 122.324 87.6501 122.282C87.86 122.202 88.0662 122.118 88.2724 122.033C88.6236 121.892 88.9749 121.743 89.3223 121.59C89.6468 121.444 89.9675 121.299 90.2882 121.146C90.2959 121.142 90.3073 121.142 90.315 121.134C90.3875 121.1 90.46 121.065 90.5288 121.031H90.5326C92.2908 120.185 93.9865 119.215 95.6066 118.127C96.1258 117.779 96.6374 117.419 97.1414 117.048C97.5461 116.746 97.9432 116.44 98.3402 116.126C100.299 114.564 102.112 112.828 103.758 110.938V110.934C103.876 110.804 103.987 110.67 104.101 110.536C104.121 110.517 104.136 110.498 104.151 110.482C104.224 110.394 104.292 110.31 104.365 110.226V110.222C104.46 110.111 104.556 109.996 104.647 109.882C104.67 109.855 104.689 109.832 104.709 109.809V109.805C104.785 109.713 104.857 109.621 104.934 109.526C104.972 109.48 105.006 109.434 105.044 109.388V109.384C105.27 109.101 105.487 108.818 105.705 108.527C105.762 108.451 105.82 108.37 105.881 108.29C106.155 107.919 106.423 107.54 106.682 107.161V107.157C106.782 107.016 106.877 106.87 106.976 106.729C107.072 106.583 107.167 106.438 107.263 106.293C107.358 106.14 107.457 105.99 107.553 105.837L107.564 105.814C107.66 105.669 107.755 105.516 107.847 105.367C107.919 105.244 107.992 105.126 108.064 105.007C108.11 104.927 108.16 104.846 108.206 104.762C108.224 104.736 108.24 104.709 108.255 104.682C108.362 104.494 108.469 104.307 108.576 104.119C108.702 103.901 108.824 103.679 108.946 103.457C108.992 103.366 109.042 103.274 109.091 103.182C109.111 103.151 109.126 103.121 109.141 103.09C109.198 102.983 109.256 102.872 109.309 102.761C109.366 102.654 109.424 102.543 109.481 102.432C109.534 102.325 109.592 102.214 109.645 102.103C109.687 102.019 109.725 101.935 109.767 101.85C109.77 101.844 109.774 101.837 109.779 101.831C109.798 101.789 109.817 101.751 109.832 101.713C109.837 101.707 109.841 101.7 109.844 101.694C109.886 101.609 109.924 101.521 109.966 101.437C110.019 101.326 110.069 101.212 110.122 101.101C110.157 101.024 110.195 100.944 110.229 100.863C110.279 100.752 110.332 100.641 110.378 100.527C110.432 100.412 110.481 100.297 110.531 100.178C110.545 100.15 110.558 100.12 110.569 100.09C110.596 100.037 110.615 99.9833 110.638 99.9298C110.699 99.7882 110.76 99.6428 110.817 99.5012C110.886 99.3405 110.951 99.176 111.012 99.0153C111.073 98.8661 111.13 98.7131 111.188 98.56L111.21 98.5064C112.1 96.1583 112.775 93.7341 113.226 91.2635V91.2597C113.481 89.8492 113.663 88.4266 113.772 86.9974C113.776 86.917 113.784 86.8405 113.788 86.764C113.856 85.796 113.887 84.8241 113.887 83.8485C113.887 83.4161 113.879 82.9876 113.868 82.559C113.601 73.5968 110.412 64.9688 104.789 57.9951C104.667 57.8421 104.544 57.689 104.418 57.536C104.292 57.383 104.163 57.2337 104.037 57.0845C99.8512 52.1726 94.5728 48.3149 88.6268 45.8224C82.6808 43.33 76.2336 42.2725 69.805 42.7353C63.3763 43.1981 57.1461 45.1681 51.6167 48.4867C46.0872 51.8052 41.4131 56.3794 37.9713 61.8404C37.7842 62.1389 37.5972 62.4411 37.4177 62.7434C37.2345 63.0495 37.0588 63.3556 36.8832 63.6655C33.4244 69.8268 31.6122 76.779 31.6221 83.8484Z" fill="white"/>
<path d="M71.1214 56.887C77.8851 58.6262 84.8163 59.6288 91.7947 59.8772C92.85 59.9348 93.9078 59.9276 94.9622 59.8556C97.2793 59.6603 99.264 58.9305 101.474 58.5316C102.537 58.3405 103.721 58.2007 104.791 57.994C104.543 57.6867 104.292 57.3831 104.036 57.0833C101.729 57.2786 99.3861 57.918 97.0515 58.2151C93.083 58.7208 88.6365 58.1565 85.6281 56.7646C84.1685 56.0893 83.0505 55.2464 81.596 54.5679C81.3982 54.4662 81.1839 54.4004 80.9632 54.3737C80.5438 54.3611 80.1296 54.4688 79.7692 54.6841C77.329 55.9186 73.7862 56.9219 70.4978 56.3699C70.2526 56.5621 70.7183 56.7811 71.1214 56.887Z" fill="white"/>
<path d="M56.5697 61.2315C56.5397 61.226 56.5095 61.2217 56.4795 61.2165C56.6058 61.138 56.7248 61.0482 56.8349 60.9482L56.5697 61.2315Z" fill="white"/>
<path d="M36.8838 63.6672C38.2572 63.7772 39.6378 63.8591 41.0256 63.9129C42.0809 63.97 43.1387 63.9627 44.1931 63.8913C46.5102 63.6949 48.4949 62.9661 50.7053 62.5673C52.7311 62.2024 55.1929 62.0266 56.4791 61.2166C53.1548 60.6399 49.7104 61.8138 46.2824 62.2507C43.5096 62.5924 40.6988 62.4533 37.9731 61.8395C37.5936 62.4378 37.2305 63.047 36.8838 63.6672Z" fill="white"/>
<path d="M53.4985 120.277C53.8269 120.457 54.159 120.629 54.4912 120.794C54.6096 120.851 54.7317 120.909 54.8501 120.97C54.9493 121.016 55.0486 121.065 55.1479 121.111C55.1784 121.127 55.2051 121.138 55.2319 121.153C55.3159 121.192 55.396 121.23 55.48 121.268C55.5717 121.31 55.6633 121.352 55.7511 121.394C55.8542 121.44 55.9535 121.486 56.0565 121.528C56.4383 121.701 56.8239 121.865 57.2096 122.022C58.5915 122.59 60.0037 123.08 61.4398 123.491C61.5047 123.51 61.5734 123.529 61.6422 123.549C62.2569 123.721 62.8754 123.878 63.4977 124.019C64.5858 124.272 65.6841 124.478 66.7925 124.639H66.8002C66.9338 124.658 67.0636 124.677 67.1972 124.696C67.2087 124.696 67.2202 124.7 67.2354 124.7C67.2354 124.704 67.2354 124.704 67.2392 124.7C67.3843 124.719 67.5332 124.739 67.6783 124.758C67.6882 124.761 67.6985 124.762 67.7088 124.761C67.8463 124.781 67.9876 124.796 68.125 124.811C68.2739 124.827 68.4228 124.842 68.5717 124.857C68.6862 124.869 68.8008 124.88 68.9153 124.892C68.9251 124.895 68.9355 124.896 68.9458 124.895C69.0489 124.903 69.152 124.915 69.2551 124.922H69.2704C69.3582 124.93 69.4498 124.937 69.5376 124.945C70.6028 125.029 71.6718 125.068 72.7561 125.068C73.9282 125.068 75.0927 125.022 76.2419 124.922H76.2533C76.5015 124.899 76.7459 124.876 76.9902 124.853C77.0551 124.846 77.1162 124.842 77.1811 124.834C77.1926 124.834 77.2078 124.83 77.2193 124.83C77.2384 124.827 77.2575 124.827 77.2804 124.823C77.2907 124.823 77.301 124.822 77.3109 124.819C77.3949 124.811 77.4789 124.8 77.5667 124.792L77.8531 124.758C77.9485 124.746 78.0439 124.731 78.1394 124.719C78.1623 124.716 78.1814 124.716 78.2043 124.712C78.273 124.704 78.3417 124.693 78.4105 124.681C78.4448 124.677 78.4792 124.673 78.5097 124.67C78.5785 124.658 78.6434 124.651 78.7121 124.639H78.7159C80.8109 124.337 82.879 123.87 84.9009 123.243C85.0078 123.208 85.1147 123.177 85.2216 123.143C84.7287 120.839 83.7138 118.68 82.2554 116.831C80.797 114.983 78.9342 113.495 76.8108 112.483C77.336 111.982 77.699 111.334 77.8531 110.624C77.9522 110.166 77.96 109.693 77.8762 109.232C77.7923 108.771 77.6184 108.331 77.3644 107.938C76.8689 107.176 76.0916 106.642 75.2034 106.453L69.5453 105.267C68.6344 105.089 67.6903 105.279 66.9182 105.795C66.146 106.311 65.6083 107.111 65.4219 108.022C65.3642 108.301 65.3386 108.586 65.3456 108.871C59.8974 112.506 55.9764 116.275 53.4985 120.277Z" fill="#7E0772"/>
<path d="M75.8828 101.44C83.4891 101.44 89.6552 95.2602 89.6552 87.6375C89.6552 80.0148 83.4891 73.8354 75.8828 73.8354C68.2765 73.8354 62.1104 80.0148 62.1104 87.6375C62.1104 95.2602 68.2765 101.44 75.8828 101.44Z" fill="#B7B7B7"/>
<path d="M73.9257 100.702C70.4778 101.635 66.6766 100.394 63.9858 98.041C61.2951 95.6875 59.6119 92.3526 58.642 88.908C57.9318 86.3852 57.595 83.5847 58.7158 81.2163C59.8367 78.8479 62.8534 77.25 65.1807 78.4463C63.745 76.77 64.4623 73.9974 66.1391 72.5633C67.8159 71.1293 70.1184 70.7181 72.3114 70.4934C75.494 70.1672 78.7814 70.1307 81.8099 71.164C84.8384 72.1973 87.5901 74.4564 88.5379 77.5185C89.5059 77.9702 90.5961 78.0874 91.6377 77.8517C92.6793 77.616 93.6135 77.0408 94.294 76.2161C94.4695 77.1633 94.3285 78.142 93.8931 79.0008C93.4576 79.8596 92.7518 80.5507 91.885 80.9671L96.5252 79.4594C97.3232 81.1522 95.9249 83.2473 94.1367 83.7894C92.3486 84.3315 90.4183 83.739 88.7215 82.9558C87.0246 82.1727 85.3802 81.1825 83.537 80.8771C81.6939 80.5717 79.5289 81.1651 78.6763 82.831C78.2298 83.7036 78.2065 84.7255 77.9472 85.671C77.688 86.6165 77.0312 87.5969 76.0558 87.6743C75.4395 87.7231 74.8361 87.3942 74.2216 87.4614C73.8444 87.5359 73.4971 87.7189 73.2222 87.9881C72.9473 88.2573 72.7566 88.601 72.6736 88.9771C72.5206 89.7319 72.5188 90.5097 72.6681 91.2652L73.8468 100.294L73.9257 100.702Z" fill="#2F2E41"/>
</g>
<defs>
<clipPath id="clip0_1_261">
<rect width="309" height="241" fill="white"/>
</clipPath>
</defs>
</svg>
