<svg width="279" height="201" viewBox="0 0 279 201" fill="none" xmlns="http://www.w3.org/2000/svg">
<g clip-path="url(#clip0_1_403)">
<path d="M41.3614 142.483C41.1325 142.138 40.8304 141.847 40.4764 141.63C40.1224 141.414 39.7251 141.278 39.3124 141.231C38.8998 141.184 38.4819 141.228 38.0881 141.359C37.6943 141.491 37.3343 141.707 37.0333 141.992L28.0625 137.378L28.6202 142.576L37.0535 146.161C37.5679 146.633 38.2381 146.9 38.9372 146.913C39.6363 146.925 40.3157 146.682 40.8467 146.228C41.3778 145.775 41.7234 145.144 41.8183 144.453C41.9132 143.763 41.7506 143.062 41.3614 142.483Z" fill="#A0616A"/>
<path d="M33.3889 144.575C33.2266 144.649 33.0504 144.689 32.8718 144.691C32.6932 144.693 32.5163 144.657 32.3524 144.586L23.8314 140.903C20.9178 139.644 18.5624 137.374 17.2032 134.514L12.7235 125.092C12.3929 124.668 12.1493 124.184 12.0065 123.667C11.8638 123.15 11.8247 122.61 11.8916 122.078C11.9585 121.546 12.13 121.032 12.3963 120.566C12.6626 120.1 13.0185 119.691 13.4437 119.362C13.8688 119.033 14.3548 118.791 14.874 118.649C15.3931 118.507 15.9352 118.469 16.4691 118.536C17.0031 118.604 17.5185 118.775 17.9859 119.041C18.4533 119.307 18.8636 119.662 19.1931 120.086L27.0673 134.644L34.3382 140.117C34.5463 140.274 34.7009 140.491 34.781 140.739C34.8612 140.987 34.8631 141.253 34.7864 141.502L34.0728 143.799C33.9961 144.045 33.8459 144.262 33.6423 144.421C33.5642 144.482 33.4792 144.534 33.3889 144.575Z" fill="#CCCCCC"/>
<path d="M12.5265 114.011C16.3587 114.011 19.4652 110.915 19.4652 107.097C19.4652 103.278 16.3587 100.183 12.5265 100.183C8.69443 100.183 5.58789 103.278 5.58789 107.097C5.58789 110.915 8.69443 114.011 12.5265 114.011Z" fill="#A0616A"/>
<path d="M15.337 197.795L18.8003 197.795L20.4481 184.484L15.3362 184.484L15.337 197.795Z" fill="#A0616A"/>
<path d="M25.48 200.999L14.5948 201L14.5946 196.809L21.2741 196.809C22.3895 196.809 23.4593 197.25 24.248 198.036C25.0368 198.822 25.4799 199.888 25.48 200.999Z" fill="#2F2E41"/>
<path d="M4.03674 197.795L7.49999 197.795L9.14785 184.484L4.03589 184.484L4.03674 197.795Z" fill="#A0616A"/>
<path d="M14.1797 200.999L3.2945 201L3.2943 196.809L9.97385 196.809C11.0893 196.809 12.159 197.25 12.9477 198.036C13.7365 198.822 14.1796 199.888 14.1797 200.999Z" fill="#2F2E41"/>
<path d="M2.8273 193.985C2.70796 193.849 2.61913 193.69 2.56675 193.517C2.51437 193.344 2.49966 193.162 2.5236 192.983L8.5875 147.666L23.6532 150.215L25.2611 149.254L21.1033 192.251C21.0687 192.542 20.9347 192.811 20.7239 193.015C20.5131 193.218 20.2383 193.342 19.9461 193.367L15.3842 193.746C15.2029 193.761 15.0204 193.737 14.8491 193.676C14.6777 193.615 14.5216 193.518 14.3913 193.391C14.261 193.265 14.1594 193.112 14.0935 192.943C14.0276 192.773 13.999 192.592 14.0094 192.411L15.1905 171.934C15.1926 171.899 15.1816 171.865 15.1598 171.838C15.1379 171.811 15.1067 171.792 15.0722 171.787C15.0377 171.781 15.0023 171.789 14.9729 171.807C14.9435 171.826 14.9222 171.855 14.9131 171.889L9.06997 193.48C8.9969 193.749 8.83715 193.986 8.61535 194.156C8.39354 194.325 8.12199 194.417 7.84255 194.417H3.7838C3.60265 194.417 3.42358 194.379 3.25862 194.304C3.09365 194.23 2.94659 194.121 2.8273 193.985Z" fill="#7E0772"/>
<path d="M13.2609 150.838C13.0879 150.682 12.8656 150.591 12.6326 150.581C12.3995 150.572 12.1704 150.644 11.985 150.785L8.97298 153.119C8.80907 153.247 8.61628 153.332 8.41154 153.368C8.2068 153.404 7.99636 153.389 7.79869 153.325C7.60101 153.261 7.42215 153.149 7.2778 153C7.13344 152.851 7.02801 152.669 6.97074 152.47C5.4933 147.314 2.14599 134.336 2.97061 125.202C3.43803 120.024 7.92496 116.089 12.9728 116.42C16.4237 116.649 18.6941 118.633 19.7207 122.315C22.2414 131.358 25.0116 147.944 25.5413 151.178C25.5831 151.429 25.5478 151.686 25.4401 151.917C25.3324 152.147 25.1573 152.34 24.9377 152.47C23.5126 153.322 21.8843 153.779 20.2221 153.792C18.2109 153.792 15.7994 153.094 13.2609 150.838Z" fill="#CCCCCC"/>
<path d="M14.3975 154.054C14.4312 153.642 14.3738 153.227 14.2292 152.839C14.0847 152.451 13.8565 152.1 13.5608 151.809C13.2651 151.518 12.909 151.296 12.5177 151.157C12.1264 151.019 11.7093 150.967 11.2959 151.007L7.09451 141.86L4.31421 146.293L8.73017 154.299C8.84256 154.987 9.20419 155.609 9.74655 156.049C10.2889 156.489 10.9743 156.715 11.6729 156.685C12.3715 156.655 13.0347 156.37 13.5368 155.886C14.039 155.401 14.3452 154.749 14.3975 154.054Z" fill="#A0616A"/>
<path d="M6.82846 150.798C6.65478 150.757 6.4918 150.679 6.3501 150.571C6.20841 150.463 6.09118 150.326 6.00604 150.169L1.58222 142.031C0.0693309 139.249 -0.377857 136.014 0.323833 132.928L2.6343 122.759C2.6364 122.223 2.74454 121.693 2.95254 121.198C3.16054 120.703 3.46432 120.255 3.84652 119.877C4.22871 119.5 4.68183 119.201 5.17997 118.998C5.67811 118.795 6.21149 118.692 6.74964 118.695C7.28778 118.697 7.82014 118.805 8.31626 119.013C8.81239 119.221 9.26256 119.524 9.64104 119.905C10.0195 120.286 10.3189 120.738 10.522 121.235C10.7252 121.731 10.8281 122.263 10.8249 122.799L8.0051 139.096L10.3368 147.874C10.4031 148.125 10.3902 148.391 10.2998 148.636C10.2095 148.88 10.046 149.091 9.83154 149.239L7.84749 150.608C7.63465 150.754 7.382 150.833 7.12322 150.833C7.02394 150.833 6.925 150.821 6.82846 150.798Z" fill="#CCCCCC"/>
<path opacity="0.2" d="M10.262 129.672L7.71948 140.369L11.3921 149.377L8.84951 140.651L10.262 129.672Z" fill="black"/>
<path d="M8.56692 112.782C7.94971 112.793 7.33634 112.683 6.76227 112.457C6.50968 112.36 6.24747 112.28 5.99534 112.183C3.76871 111.326 2.30195 108.963 2.24942 106.585C2.19688 104.207 3.43274 101.899 5.2679 100.378C7.10305 98.8567 9.48003 98.0758 11.8602 97.8952C14.424 97.7007 17.3109 98.3485 18.7436 100.476C19.1249 101.042 19.3916 101.729 19.1656 102.413C19.0979 102.62 18.9771 102.805 18.8151 102.95C18.1753 103.517 17.5375 103.09 16.8852 103.053C15.9888 103.001 15.1836 103.724 14.8942 104.571C14.6048 105.418 14.7322 106.351 14.9659 107.215C15.1439 107.734 15.2561 108.274 15.2999 108.822C15.3188 109.097 15.267 109.371 15.1494 109.62C15.0318 109.869 14.8523 110.084 14.628 110.245C14.0678 110.582 13.3321 110.387 12.7716 110.05C12.2111 109.713 11.7268 109.245 11.1213 108.997C10.5159 108.749 9.70248 108.804 9.35008 109.354C9.23809 109.554 9.16229 109.772 9.12614 109.998C8.81022 111.432 8.88284 111.348 8.56692 112.782Z" fill="#2F2E41"/>
<path d="M213.952 64.8805H42.4704C41.8172 64.8811 41.1909 65.1398 40.729 65.6001C40.2672 66.0603 40.0074 66.6843 40.0068 67.3352V183.122C40.0074 183.773 40.2672 184.397 40.729 184.858C41.1909 185.318 41.8172 185.577 42.4704 185.577H213.952C214.308 185.577 214.66 185.5 214.983 185.351C215.307 185.203 215.594 184.986 215.825 184.716C215.844 184.695 215.862 184.672 215.879 184.648C216.026 184.469 216.145 184.269 216.232 184.054C216.356 183.759 216.419 183.442 216.418 183.122V111.044H215.715V183.122C215.715 183.465 215.614 183.8 215.424 184.085C215.255 184.336 215.026 184.541 214.757 184.682C214.508 184.81 214.232 184.877 213.952 184.876H42.4704C42.0037 184.876 41.5564 184.691 41.2264 184.362C40.8964 184.033 40.7108 183.587 40.7102 183.122V67.3352C40.7108 66.8702 40.8964 66.4244 41.2264 66.0957C41.5564 65.7669 42.0037 65.582 42.4704 65.5814H213.952C214.419 65.5814 214.867 65.7661 215.197 66.0949C215.528 66.4237 215.714 66.8698 215.715 67.3352V82.8938H216.418V67.3352C216.417 66.6839 216.157 66.0596 215.695 65.5993C215.232 65.139 214.606 64.8805 213.952 64.8805Z" fill="#7E0772"/>
<path d="M216.064 74.7198H40.3574V75.4215H216.064V74.7198Z" fill="#7E0772"/>
<path d="M46.3434 72.2497C47.5102 72.2497 48.4561 71.3072 48.4561 70.1445C48.4561 68.9818 47.5102 68.0393 46.3434 68.0393C45.1766 68.0393 44.2307 68.9818 44.2307 70.1445C44.2307 71.3072 45.1766 72.2497 46.3434 72.2497Z" fill="#CCCCCC"/>
<path d="M52.4176 72.2497C53.5845 72.2497 54.5304 71.3072 54.5304 70.1445C54.5304 68.9818 53.5845 68.0393 52.4176 68.0393C51.2508 68.0393 50.3049 68.9818 50.3049 70.1445C50.3049 71.3072 51.2508 72.2497 52.4176 72.2497Z" fill="#CCCCCC"/>
<path d="M58.4916 72.2497C59.6584 72.2497 60.6043 71.3072 60.6043 70.1445C60.6043 68.9818 59.6584 68.0393 58.4916 68.0393C57.3248 68.0393 56.3789 68.9818 56.3789 70.1445C56.3789 71.3072 57.3248 72.2497 58.4916 72.2497Z" fill="#CCCCCC"/>
<path d="M100.927 171.385C100.2 171.382 99.485 171.198 98.8471 170.85C98.2092 170.501 97.6685 170 97.2739 169.392C96.8794 168.783 96.6434 168.086 96.5875 167.363C96.5315 166.64 96.6573 165.915 96.9534 165.253L101.987 154.064C98.0226 150.57 94.8504 146.276 92.6808 141.466C90.5113 136.656 89.394 131.441 89.4034 126.168C89.4034 105.566 106.224 88.8053 126.9 88.8053C147.575 88.8053 164.396 105.566 164.396 126.168C164.396 146.77 147.575 163.531 126.9 163.531C123.283 163.527 119.686 162.999 116.221 161.964L103.376 170.629C102.654 171.12 101.801 171.383 100.927 171.385ZM126.9 94.0187C120.208 94.0148 113.681 96.0854 108.224 99.9433C102.766 103.801 98.648 109.255 96.4405 115.55C94.2331 121.844 94.0455 128.667 95.9037 135.072C97.762 141.478 101.574 147.149 106.812 151.298L108.397 152.559L102.982 164.599L115.409 156.216L116.637 156.626C121.07 158.11 125.773 158.616 130.422 158.109C135.071 157.601 139.553 156.092 143.558 153.687C147.563 151.282 150.996 148.037 153.618 144.179C156.24 140.32 157.988 135.939 158.742 131.341C159.496 126.742 159.237 122.034 157.984 117.545C156.73 113.056 154.512 108.892 151.483 105.341C148.454 101.791 144.687 98.9396 140.442 96.9845C136.197 95.0294 131.576 94.0174 126.9 94.0187Z" fill="#7E0772"/>
<path d="M126.9 129.644C129.789 129.644 132.132 127.31 132.132 124.43C132.132 121.551 129.789 119.217 126.9 119.217C124.01 119.217 121.667 121.551 121.667 124.43C121.667 127.31 124.01 129.644 126.9 129.644Z" fill="#7E0772"/>
<path d="M112.076 129.644C114.965 129.644 117.308 127.31 117.308 124.43C117.308 121.551 114.965 119.217 112.076 119.217C109.186 119.217 106.844 121.551 106.844 124.43C106.844 127.31 109.186 129.644 112.076 129.644Z" fill="#7E0772"/>
<path d="M141.724 129.644C144.613 129.644 146.956 127.31 146.956 124.43C146.956 121.551 144.613 119.217 141.724 119.217C138.834 119.217 136.492 121.551 136.492 124.43C136.492 127.31 138.834 129.644 141.724 129.644Z" fill="#7E0772"/>
<path d="M258.469 103.796H208.748C208.148 103.796 207.573 103.559 207.15 103.136C206.726 102.714 206.488 102.141 206.488 101.544C206.488 100.947 206.726 100.374 207.15 99.9514C207.573 99.5291 208.148 99.2918 208.748 99.2918H258.469C259.068 99.2918 259.643 99.5291 260.067 99.9514C260.491 100.374 260.729 100.947 260.729 101.544C260.729 102.141 260.491 102.714 260.067 103.136C259.643 103.559 259.068 103.796 258.469 103.796Z" fill="#CCCCCC"/>
<path d="M225.981 94.2248H208.748C208.148 94.2248 207.573 93.9875 207.15 93.5652C206.726 93.1429 206.488 92.57 206.488 91.9728C206.488 91.3755 206.726 90.8027 207.15 90.3804C207.573 89.958 208.148 89.7208 208.748 89.7208H225.981C226.58 89.7208 227.155 89.958 227.579 90.3804C228.002 90.8027 228.241 91.3755 228.241 91.9728C228.241 92.57 228.002 93.1429 227.579 93.5652C227.155 93.9875 226.58 94.2248 225.981 94.2248Z" fill="#CCCCCC"/>
<path d="M186.227 106.54C191.532 106.54 195.832 102.255 195.832 96.9689C195.832 91.6829 191.532 87.3978 186.227 87.3978C180.922 87.3978 176.622 91.6829 176.622 96.9689C176.622 102.255 180.922 106.54 186.227 106.54Z" fill="#7E0772"/>
<path d="M263.453 82.3308H173.898C172.625 82.3326 171.404 82.8374 170.504 83.7344C169.604 84.6315 169.097 85.8477 169.095 87.1163V106.821C169.097 108.09 169.604 109.306 170.504 110.203C171.404 111.1 172.625 111.605 173.898 111.607H263.453C264.726 111.605 265.946 111.1 266.847 110.203C267.747 109.306 268.254 108.09 268.255 106.821V87.1163C268.254 85.8477 267.747 84.6315 266.847 83.7344C265.946 82.8374 264.726 82.3326 263.453 82.3308ZM267.69 106.821C267.689 107.941 267.242 109.014 266.448 109.806C265.653 110.597 264.576 111.043 263.453 111.044H173.898C172.775 111.043 171.698 110.597 170.903 109.806C170.109 109.014 169.662 107.941 169.66 106.821V87.1163C169.662 85.9969 170.109 84.9236 170.903 84.1321C171.698 83.3405 172.775 82.8952 173.898 82.8938H263.453C264.576 82.8952 265.653 83.3405 266.448 84.1321C267.242 84.9236 267.689 85.9969 267.69 87.1163V106.821Z" fill="#7E0772"/>
<path d="M267.69 90.2128C271.279 90.2128 274.188 87.3141 274.188 83.7383C274.188 80.1625 271.279 77.2637 267.69 77.2637C264.102 77.2637 261.193 80.1625 261.193 83.7383C261.193 87.3141 264.102 90.2128 267.69 90.2128Z" fill="#7E0772"/>
<path d="M267.49 87.3795C267.464 87.3534 267.443 87.3224 267.429 87.2882C267.415 87.2541 267.408 87.2175 267.408 87.1805V80.0146C267.408 79.94 267.437 79.8684 267.49 79.8156C267.543 79.7628 267.615 79.7332 267.69 79.7332C267.765 79.7332 267.837 79.7628 267.89 79.8156C267.943 79.8684 267.973 79.94 267.973 80.0146V87.1805C267.973 87.2362 267.956 87.2906 267.925 87.3369C267.894 87.3831 267.85 87.4192 267.798 87.4405C267.747 87.4618 267.69 87.4674 267.635 87.4566C267.58 87.4457 267.53 87.4189 267.49 87.3795Z" fill="white"/>
<path d="M263.895 83.7966C263.855 83.7572 263.828 83.707 263.817 83.6524C263.807 83.5978 263.812 83.5412 263.834 83.4898C263.855 83.4384 263.891 83.3944 263.938 83.3635C263.984 83.3326 264.039 83.316 264.094 83.316H271.286C271.361 83.316 271.433 83.3457 271.486 83.3985C271.539 83.4513 271.568 83.5229 271.568 83.5975C271.568 83.6722 271.539 83.7438 271.486 83.7965C271.433 83.8493 271.361 83.879 271.286 83.879H264.094C264.057 83.879 264.021 83.8718 263.986 83.8577C263.952 83.8435 263.921 83.8227 263.895 83.7966Z" fill="white"/>
<path d="M275.469 169.795H261.906C261.906 170.184 247.927 170.499 247.927 170.499C247.708 170.664 247.508 170.852 247.331 171.062C246.8 171.693 246.51 172.491 246.512 173.314V173.877C246.512 174.81 246.884 175.705 247.546 176.365C248.209 177.025 249.107 177.395 250.043 177.396H275.469C276.405 177.395 277.303 177.024 277.965 176.364C278.627 175.704 278.999 174.81 279 173.877V173.314C278.999 172.381 278.626 171.487 277.964 170.827C277.302 170.168 276.405 169.796 275.469 169.795Z" fill="#7E0772"/>
<path d="M264.732 177.256H261.06V200.902H264.732V177.256Z" fill="#7E0772"/>
<path d="M275.185 200.773C275.185 201.169 269.62 200.926 262.754 200.926C255.889 200.926 250.324 201.169 250.324 200.773C250.324 200.378 255.889 197.242 262.754 197.242C269.62 197.242 275.185 200.378 275.185 200.773Z" fill="#7E0772"/>
<path d="M264.074 138.107C268.443 138.107 271.984 134.578 271.984 130.225C271.984 125.872 268.443 122.343 264.074 122.343C259.705 122.343 256.164 125.872 256.164 130.225C256.164 134.578 259.705 138.107 264.074 138.107Z" fill="#2F2E41"/>
<path d="M244.389 197.663L240.925 197.663L239.278 184.351L244.39 184.352L244.389 197.663Z" fill="#FFB8B8"/>
<path d="M238.451 196.677H245.131V200.868H234.246C234.246 199.756 234.689 198.69 235.478 197.905C236.266 197.119 237.336 196.677 238.451 196.677Z" fill="#2F2E41"/>
<path d="M238.982 195.737L235.678 194.704L238.105 181.511L242.982 183.036L238.982 195.737Z" fill="#FFB8B8"/>
<path d="M233.614 193.025L239.987 195.018L238.727 199.016L228.342 195.769C228.676 194.708 229.419 193.823 230.407 193.309C231.396 192.794 232.549 192.692 233.614 193.025Z" fill="#2F2E41"/>
<path d="M266.193 167.488C266.113 166.817 265.969 166.155 265.764 165.512L265.117 164.701L263.433 162.595L263.359 162.598C263.235 162.604 262.718 162.632 261.919 162.694H261.91C261.416 162.733 260.811 162.784 260.125 162.848C259.944 162.868 259.755 162.885 259.56 162.905V165.844H263.091C263.263 165.844 263.428 165.906 263.557 166.019C263.686 166.132 263.769 166.288 263.792 166.457C263.794 166.488 263.797 166.516 263.797 166.547C263.797 166.734 263.723 166.913 263.59 167.045C263.458 167.177 263.278 167.251 263.091 167.251H242.581C242.32 167.424 242.069 167.612 241.829 167.814C241.107 168.372 240.586 169.148 240.346 170.027C239.149 175.274 236.965 185.059 236.321 187.933C236.274 188.15 236.285 188.375 236.351 188.586C236.418 188.797 236.539 188.987 236.702 189.138C236.822 189.25 236.963 189.337 237.117 189.394L239.666 190.346C239.77 190.384 239.879 190.41 239.99 190.422C240.004 190.422 240.016 190.424 240.03 190.424C240.056 190.427 240.083 190.428 240.109 190.427C240.367 190.426 240.618 190.348 240.83 190.202C241.042 190.056 241.206 189.85 241.298 189.611L243.31 184.352L246.409 176.245L247.635 173.039C249.056 173.371 260.978 176 264.97 171.764C265.363 171.346 265.674 170.858 265.885 170.325C266.221 169.419 266.327 168.444 266.193 167.488Z" fill="#2F2E41"/>
<path d="M269.651 168.253C269.589 168.003 269.518 167.744 269.436 167.482L267.105 164.566L267.032 164.568C266.885 164.577 266.187 164.613 265.116 164.701C263.902 164.802 262.204 164.965 260.297 165.222C260.24 165.227 260.181 165.236 260.125 165.244C259.938 165.269 259.749 165.295 259.56 165.323V165.844H263.091C263.263 165.844 263.428 165.906 263.557 166.019C263.686 166.132 263.769 166.288 263.792 166.457C263.794 166.488 263.797 166.516 263.797 166.547C263.797 166.734 263.723 166.913 263.59 167.045C263.458 167.177 263.278 167.251 263.091 167.251H250.61C250.065 167.428 249.539 167.614 249.036 167.814C246.398 168.856 244.423 170.221 244.019 171.997C243.883 172.594 243.734 173.25 243.575 173.948C242.988 176.544 242.273 179.722 241.626 182.61V182.613C241.493 183.209 241.36 183.789 241.233 184.352C240.694 186.773 240.236 188.825 239.993 189.904C239.987 189.935 239.982 189.963 239.976 189.994V189.999C239.948 190.217 239.975 190.439 240.055 190.644L240.058 190.647V190.65C240.136 190.846 240.262 191.019 240.425 191.153C240.535 191.243 240.658 191.314 240.79 191.365L243.338 192.316C243.48 192.369 243.63 192.397 243.782 192.398C243.994 192.398 244.203 192.345 244.389 192.243C244.656 192.099 244.862 191.864 244.971 191.581L250.457 177.236L251.308 175.009C252.728 175.341 264.65 177.968 268.642 173.734C269.431 172.884 269.881 171.776 269.908 170.618C269.936 169.821 269.849 169.025 269.651 168.253Z" fill="#2F2E41"/>
<path d="M269.337 143.419C269.292 143.366 269.244 143.312 269.193 143.262C268.441 142.473 267.512 141.874 266.482 141.512C265.452 141.151 264.351 141.037 263.269 141.181C262.325 141.305 261.39 141.488 260.469 141.73C259.28 142.035 258.192 142.643 257.311 143.495C256.625 144.158 256.084 144.956 255.724 145.838C255.364 146.72 255.191 147.667 255.217 148.619C255.229 149.004 255.232 149.398 255.226 149.798C255.226 149.984 255.223 150.172 255.22 150.361H258.006C258.127 150.361 258.247 150.375 258.365 150.403C258.705 150.484 259.007 150.677 259.224 150.95C259.441 151.223 259.559 151.561 259.56 151.909V165.005C259.749 165.058 259.938 165.112 260.125 165.168C260.184 165.188 260.241 165.205 260.297 165.222C260.362 165.241 260.427 165.261 260.489 165.281C261.063 165.458 261.623 165.646 262.17 165.844H263.091C263.263 165.844 263.428 165.906 263.557 166.019C263.686 166.132 263.769 166.288 263.792 166.457C263.984 166.533 264.17 166.609 264.354 166.685C265.006 166.956 265.625 167.226 266.193 167.488C266.958 167.837 267.639 168.169 268.21 168.459C268.389 168.55 268.588 168.598 268.789 168.6C269.054 168.599 269.311 168.514 269.524 168.357C269.568 168.325 269.61 168.29 269.651 168.253C269.802 168.112 269.916 167.936 269.984 167.741C270.051 167.546 270.07 167.337 270.038 167.133C269.746 164.922 269.661 162.688 269.784 160.461C269.863 158.589 270.032 156.669 270.253 154.814C270.371 153.809 270.504 152.824 270.642 151.875C270.775 150.969 270.916 150.099 271.055 149.277C271.236 148.235 271.176 147.165 270.878 146.15C270.581 145.134 270.053 144.2 269.337 143.419Z" fill="#7E0772"/>
<path d="M257.757 143.65C257.612 143.588 257.463 143.536 257.311 143.495C256.558 143.293 255.757 143.368 255.055 143.705C254.353 144.043 253.796 144.621 253.486 145.333L251.545 149.798L251.302 150.361H258.006C258.127 150.361 258.247 150.375 258.365 150.403L258.591 149.883L259.449 147.906C259.791 147.118 259.804 146.227 259.487 145.43C259.17 144.632 258.548 143.992 257.757 143.65Z" fill="#7E0772"/>
<path d="M263.785 138.983C267.617 138.983 270.723 135.888 270.723 132.069C270.723 128.251 267.617 125.155 263.785 125.155C259.953 125.155 256.846 128.251 256.846 132.069C256.846 135.888 259.953 138.983 263.785 138.983Z" fill="#FFB8B8"/>
<path d="M256.721 128.672C260.008 130.671 263.713 131.888 267.549 132.227L266.407 130.865C267.238 131.171 268.113 131.344 268.998 131.377C269.882 131.364 270.809 131.024 271.311 130.299C271.535 129.938 271.668 129.529 271.698 129.106C271.729 128.683 271.657 128.258 271.487 127.869C271.14 127.093 270.598 126.419 269.915 125.91C268.704 124.955 267.274 124.314 265.754 124.043C264.233 123.772 262.669 123.881 261.201 124.358C260.194 124.658 259.292 125.235 258.599 126.022C257.941 126.83 256.674 127.551 257.011 128.536L256.721 128.672Z" fill="#2F2E41"/>
<path d="M264.951 123.093C262.763 120.881 260.115 119.175 257.193 118.093C255.317 117.401 253.276 116.973 251.315 117.367C249.355 117.76 247.5 119.111 246.953 121.028C246.506 122.596 246.968 124.283 247.662 125.759C248.356 127.235 249.283 128.603 249.844 130.134C250.417 131.695 250.589 133.375 250.345 135.02C250.102 136.665 249.449 138.223 248.448 139.553C247.446 140.883 246.127 141.943 244.61 142.636C243.093 143.329 241.427 143.634 239.762 143.522C241.688 143.78 243.464 144.682 245.347 145.162C247.23 145.642 249.453 145.61 250.852 144.265C252.333 142.843 252.363 140.531 252.291 138.483C252.185 135.438 252.078 132.394 251.972 129.349C251.917 127.797 251.871 126.194 252.433 124.745C252.995 123.296 254.33 122.027 255.889 122.04C257.071 122.05 258.117 122.764 259.064 123.467C260.012 124.17 261.015 124.921 262.192 125.026C263.369 125.13 264.713 124.262 264.625 123.088L264.951 123.093Z" fill="#2F2E41"/>
<path d="M270.642 151.876L266.682 151.983L266.393 154.755L266.328 155.397L260.125 158.173L259.56 158.426V163.361L260.125 163.2L261.91 162.694H261.919L269.783 160.461L269.874 160.436C270.509 160.253 271.069 159.871 271.469 159.346C271.869 158.821 272.088 158.182 272.094 157.522L272.114 154.249L272.131 151.836L270.642 151.876Z" fill="#FFB8B8"/>
<path d="M271.931 146.392C271.878 145.535 271.486 144.734 270.84 144.165C270.194 143.596 269.348 143.306 268.488 143.359C267.628 143.411 266.824 143.802 266.253 144.446C265.683 145.089 265.392 145.932 265.444 146.789L265.876 153.815C265.888 154 265.941 154.18 266.03 154.343C266.119 154.505 266.243 154.646 266.393 154.755C266.632 154.933 266.927 155.02 267.224 155L270.253 154.814L271.171 154.758C271.338 154.75 271.502 154.708 271.652 154.635C271.803 154.562 271.937 154.459 272.047 154.333C272.071 154.306 272.093 154.278 272.114 154.249C272.294 154.009 272.382 153.714 272.363 153.415L271.931 146.392Z" fill="#7E0772"/>
<path d="M260.489 165.281H260.125V165.244C259.938 165.269 259.749 165.295 259.56 165.323V165.844H262.17C261.622 165.647 261.062 165.459 260.489 165.281ZM260.489 165.281H260.125V165.244C259.938 165.269 259.749 165.295 259.56 165.323V165.844H262.17C261.622 165.647 261.062 165.459 260.489 165.281ZM263.091 165.281H260.125V151.909C260.124 151.452 259.973 151.006 259.697 150.641C259.42 150.275 259.032 150.009 258.591 149.883C258.401 149.826 258.204 149.797 258.006 149.798H232.863C232.301 149.799 231.762 150.021 231.365 150.417C230.968 150.813 230.745 151.35 230.744 151.909V165.703C230.744 166.263 230.967 166.8 231.365 167.196C231.762 167.591 232.301 167.814 232.863 167.814H263.091C263.404 167.814 263.706 167.698 263.939 167.49C264.172 167.282 264.319 166.995 264.354 166.685C264.359 166.64 264.362 166.594 264.362 166.547C264.362 166.212 264.228 165.89 263.989 165.652C263.751 165.415 263.428 165.281 263.091 165.281ZM263.797 166.547C263.797 166.734 263.723 166.913 263.59 167.045C263.458 167.177 263.278 167.251 263.091 167.251H232.863C232.451 167.251 232.056 167.088 231.764 166.797C231.473 166.507 231.309 166.113 231.309 165.703V151.909C231.309 151.499 231.473 151.105 231.764 150.815C232.056 150.525 232.451 150.361 232.863 150.361H258.006C258.127 150.361 258.247 150.375 258.365 150.403C258.705 150.484 259.007 150.677 259.224 150.95C259.441 151.223 259.559 151.561 259.56 151.909V165.844H263.091C263.263 165.844 263.428 165.906 263.557 166.019C263.686 166.132 263.769 166.288 263.792 166.457C263.794 166.488 263.797 166.516 263.797 166.547ZM260.489 165.281H260.125V165.244C259.938 165.269 259.749 165.295 259.56 165.323V165.844H262.17C261.622 165.647 261.062 165.459 260.489 165.281Z" fill="#7E0772"/>
<path d="M245.434 160.496C246.37 160.496 247.129 159.739 247.129 158.807C247.129 157.874 246.37 157.117 245.434 157.117C244.497 157.117 243.739 157.874 243.739 158.807C243.739 159.739 244.497 160.496 245.434 160.496Z" fill="#7E0772"/>
<path d="M94.0333 20.0902C94.027 20.2188 94.0309 20.3477 94.045 20.4757L85.1737 27.8944L82.5282 26.94L80.5608 30.73L86.3447 33.4734L96.0431 22.6289C96.5328 22.7174 97.038 22.6553 97.4914 22.4507C97.9448 22.2462 98.325 21.909 98.5814 21.4839C98.8378 21.0588 98.9583 20.566 98.9268 20.0711C98.8952 19.5761 98.7133 19.1025 98.405 18.7131C98.0967 18.3237 97.6768 18.0371 97.2011 17.8913C96.7254 17.7455 96.2164 17.7475 95.7418 17.897C95.2672 18.0465 94.8496 18.3364 94.5444 18.7282C94.2392 19.1199 94.0609 19.595 94.0333 20.0902Z" fill="#FFB8B8"/>
<path d="M82.1355 32.548L73.5689 29.4668C72.7824 29.184 72.1409 28.6014 71.7855 27.8472C71.4301 27.0931 71.39 26.2291 71.6738 25.4455C71.9577 24.6618 72.5424 24.0226 73.2992 23.6685C74.0561 23.3144 74.9231 23.2743 75.7096 23.5572L84.2762 26.6383C84.406 26.685 84.5253 26.7567 84.6273 26.8493C84.7293 26.9419 84.812 27.0536 84.8706 27.1781C84.9293 27.3026 84.9628 27.4373 84.9691 27.5747C84.9755 27.712 84.9547 27.8493 84.9078 27.9786L83.4808 31.9185C83.3858 32.1795 83.1909 32.3923 82.9387 32.5103C82.6865 32.6283 82.3977 32.6419 82.1355 32.548Z" fill="#CCCCCC"/>
<path d="M75.8616 62.5643L78.7246 62.564L80.0865 51.5601L75.8611 51.5604L75.8616 62.5643Z" fill="#FFB8B8"/>
<path d="M84.2461 65.2129L75.248 65.2133L75.2479 61.7491L80.7694 61.7489C81.6914 61.7488 82.5757 62.1138 83.2277 62.7634C83.8797 63.413 84.246 64.2941 84.2461 65.2129Z" fill="#2F2E41"/>
<path d="M68.7859 58.8789L71.1279 60.5197L78.594 52.299L75.1375 49.8776L68.7859 58.8789Z" fill="#FFB8B8"/>
<path d="M73.8332 65.2883L66.4725 60.1314L68.472 57.2976L72.9889 60.4621C73.7431 60.9905 74.2558 61.7958 74.4142 62.7009C74.5725 63.606 74.3636 64.5367 73.8332 65.2883Z" fill="#2F2E41"/>
<path d="M82.1261 42.7421C82.1261 42.7421 89.2709 41.9021 87.9885 46.522C86.7061 51.1419 72.4165 55.1317 72.4165 55.1317L82.1261 42.7421Z" fill="#FFB8B8"/>
<path d="M77.2084 19.1693C80.3761 19.1693 82.9441 16.6105 82.9441 13.454C82.9441 10.2975 80.3761 7.73871 77.2084 7.73871C74.0406 7.73871 71.4727 10.2975 71.4727 13.454C71.4727 16.6105 74.0406 19.1693 77.2084 19.1693Z" fill="#FFB8B8"/>
<path d="M58.9169 54.1857C55.6532 50.3989 54.5111 44.5871 59.7159 39.7534C61.0013 38.589 62.4568 37.6258 64.0325 36.897L68.2274 25.2075C68.6631 23.9868 69.462 22.9276 70.5175 22.171C71.573 21.4145 72.8349 20.9967 74.1349 20.9733C75.3971 20.919 76.6452 21.2554 77.7078 21.9363C78.7704 22.6173 79.5954 23.6093 80.0694 24.7762C80.5817 25.9633 80.6403 27.2962 80.2342 28.5235C78.9855 32.3984 77.3456 36.1371 75.3397 39.6823L75.5566 41.4114L86.1596 42.3504L86.0607 42.5106C86.0091 42.5942 80.8198 50.4725 74.1813 55.7019C71.9114 57.4898 69.5642 58.2309 67.3489 58.2307C63.9896 58.2304 60.9343 56.5263 58.9169 54.1857Z" fill="#CCCCCC"/>
<path d="M57.9161 15.2471C58.9308 14.0422 59.3661 12.4662 59.7163 10.9325C60.2702 8.50572 60.6989 5.99636 61.9298 3.83073C63.1605 1.66514 65.4223 -0.129271 67.9162 0.00731656C70.3959 0.143124 72.4006 2.131 73.4647 4.39281C73.7224 4.29308 73.9982 4.24841 74.2744 4.26167C74.5505 4.27494 74.8207 4.34585 75.0676 4.46982C75.8345 4.88831 76.1213 6.07782 75.4829 6.6733C76.1543 6.35472 76.8855 6.18053 77.629 6.16207C78.3724 6.1436 79.1114 6.28127 79.7979 6.56612C80.6807 6.94061 81.4428 7.55049 82.0002 8.32866C82.5576 9.10682 82.8889 10.0231 82.9574 10.9767C82.9842 11.3638 82.9308 11.7522 82.8008 12.1179C82.6707 12.4836 82.4667 12.8187 82.2013 13.1026C81.1008 14.2315 79.5443 13.8421 78.1604 13.5545C76.8532 13.2829 75.261 13.2096 74.5246 14.4506C74.2344 14.9678 74.1531 15.5758 74.2975 16.1505C74.5796 17.3895 75.5001 18.2524 76.3932 19.0783L76.5392 19.3487C73.386 19.9614 69.9427 17.8156 69.1156 14.7223C68.2884 11.6291 70.2036 8.06061 73.2447 7.02871C73.0423 7.03499 72.8419 6.98731 72.6642 6.89059C72.4865 6.79387 72.3379 6.65162 72.2338 6.47854C72.1298 6.30546 72.074 6.10782 72.0722 5.90606C72.0704 5.70429 72.1227 5.50571 72.2237 5.33083C71.3819 4.86093 70.4293 4.62409 69.4646 4.64489C67.8937 4.74758 66.5343 5.86178 65.7168 7.20232C64.8993 8.54286 64.5291 10.0988 64.1541 11.6223C63.7792 13.1458 63.3733 14.6984 62.4992 16.003C61.8938 16.9066 61.0848 17.6567 60.1367 18.1934C59.1887 18.7301 58.1279 19.0386 57.039 19.0943C55.9501 19.1499 54.8632 18.9512 53.865 18.5139C52.8669 18.0767 51.9851 17.413 51.29 16.5759C52.3884 17.1066 53.6311 17.264 54.8278 17.024C56.0245 16.784 57.1093 16.1599 57.9161 15.2471Z" fill="#2F2E41"/>
<path d="M100.044 30.8226C104.648 30.8226 108.381 27.1032 108.381 22.515C108.381 17.9268 104.648 14.2074 100.044 14.2074C95.439 14.2074 91.7063 17.9268 91.7063 22.515C91.7063 27.1032 95.439 30.8226 100.044 30.8226Z" fill="#7E0772"/>
<path d="M99.7873 27.1872C99.7536 27.1537 99.7268 27.1139 99.7086 27.07C99.6904 27.0262 99.6811 26.9792 99.6812 26.9318V17.7371C99.6812 17.6413 99.7193 17.5494 99.7873 17.4817C99.8553 17.414 99.9475 17.3759 100.044 17.3759C100.14 17.3759 100.232 17.414 100.3 17.4817C100.368 17.5494 100.406 17.6413 100.406 17.7371V26.9318C100.406 27.0032 100.385 27.073 100.345 27.1324C100.305 27.1918 100.249 27.2381 100.182 27.2654C100.116 27.2928 100.043 27.2999 99.9729 27.286C99.9026 27.2721 99.838 27.2377 99.7873 27.1872Z" fill="white"/>
<path d="M95.1735 22.5898C95.1228 22.5393 95.0883 22.475 95.0743 22.4049C95.0604 22.3348 95.0675 22.2622 95.095 22.1962C95.1224 22.1302 95.1689 22.0738 95.2285 22.0341C95.2881 21.9945 95.3582 21.9733 95.4298 21.9733H104.657C104.753 21.9733 104.846 22.0113 104.914 22.0791C104.982 22.1468 105.02 22.2386 105.02 22.3344C105.02 22.4302 104.982 22.5221 104.914 22.5898C104.846 22.6575 104.753 22.6956 104.657 22.6956H95.4298C95.3822 22.6957 95.3351 22.6864 95.2911 22.6682C95.2471 22.6501 95.2071 22.6234 95.1735 22.5898Z" fill="white"/>
<path d="M94.3209 28.0717C94.2603 28.1854 94.2089 28.3038 94.167 28.4256L82.9724 31.3836L80.9849 29.3992L77.5874 31.9966L81.6527 36.9295L95.0572 31.2208C95.4627 31.5084 95.9465 31.6661 96.4442 31.673C96.9418 31.6799 97.4298 31.5357 97.8432 31.2595C98.2566 30.9833 98.5759 30.5883 98.7585 30.1269C98.9411 29.6655 98.9784 29.1597 98.8654 28.6767C98.7525 28.1937 98.4947 27.7564 98.1262 27.4229C97.7578 27.0895 97.2962 26.8757 96.8029 26.81C96.3095 26.7443 95.8078 26.8299 95.3645 27.0552C94.9211 27.2806 94.5571 27.6352 94.3209 28.0717Z" fill="#FFB8B8"/>
<path d="M78.2371 34.3091L71.7971 27.892C71.5035 27.6004 71.2705 27.2541 71.1114 26.8727C70.9523 26.4914 70.8702 26.0825 70.8699 25.6695C70.8695 25.2566 70.9509 24.8475 71.1093 24.4659C71.2678 24.0843 71.5002 23.7376 71.7933 23.4455C72.0863 23.1535 72.4343 22.9219 72.8173 22.7641C73.2003 22.6062 73.6107 22.5251 74.0252 22.5255C74.4397 22.5258 74.85 22.6076 75.2327 22.7661C75.6154 22.9247 75.963 23.1568 76.2556 23.4493L82.6956 29.8665C82.7932 29.9637 82.8706 30.0791 82.9234 30.2062C82.9763 30.3332 83.0034 30.4694 83.0034 30.6069C83.0034 30.7444 82.9763 30.8805 82.9234 31.0076C82.8706 31.1346 82.7932 31.25 82.6956 31.3472L79.7233 34.3091C79.526 34.5051 79.2588 34.6152 78.9802 34.6152C78.7016 34.6152 78.4344 34.5051 78.2371 34.3091Z" fill="#CCCCCC"/>
</g>
<defs>
<clipPath id="clip0_1_403">
<rect width="279" height="201" fill="white"/>
</clipPath>
</defs>
</svg>
